<svg xmlns="http://www.w3.org/2000/svg" viewBox="0 0 24 16"><rect width="24" height="16" rx="2" fill="#016fd0"/><path d="M13.76407,13.39386V7.69246l10.14753.00911V9.27646l-1.17286,1.2534,1.17286,1.26488v1.60831H22.039l-.99518-1.09817-.98811,1.10233Z" fill="#fffffe" fill-rule="evenodd"/><path d="M14.44181,12.7688V8.31991H18.2141V9.3448H15.66321v.69569h2.49007v1.00782H15.6632v.68332h2.5509V12.7688Z" fill="#016fd0" fill-rule="evenodd"/><path d="M18.19527,12.7688l2.08734-2.227L18.19518,8.32h1.61565l1.27549,1.41,1.27912-1.41H23.9116v.035l-2.04287,2.18678,2.04287,2.16389v.06312H22.34988l-1.29812-1.42418L19.767,12.7688Z" fill="#016fd0" fill-rule="evenodd"/><path d="M14.23735,2.632h2.446l.85914,1.95085V2.632h3.01985l.52075,1.46156L21.60566,2.632H23.9116V8.33335H11.72508Z" fill="#fffffe" fill-rule="evenodd"/><path d="M14.70046,3.25136l-1.974,4.44517h1.3539l.37242-.89017h2.018l.37215.89017h1.38758L16.26466,3.25136ZM14.8701,5.8088l.592-1.41508.59156,1.41508Z" fill="#016fd0" fill-rule="evenodd"/><path d="M18.212,7.69573V3.25065l1.90311.00654.97927,2.73273L22.08,3.25065h1.8316V7.69573L22.733,7.70617V4.65282L21.62042,7.69573h-1.0758L19.409,4.64239V7.69573Z" fill="#016fd0" fill-rule="evenodd"/></svg>