<svg xmlns="http://www.w3.org/2000/svg" viewBox="0 0 24.00002 16"><path d="M21.99725,15.74993l.00214,0A1.75235,1.75235,0,0,0,23.75,14.00416l0-11.99786A1.7886,1.7886,0,0,0,23.22974.7568,1.71972,1.71972,0,0,0,21.99725.25007l-19.99661,0A1.71846,1.71846,0,0,0,.77028.7568,1.78737,1.78737,0,0,0,.25,2.00426l0,11.98944a1.78855,1.78855,0,0,0,.52028,1.2495,1.71971,1.71971,0,0,0,1.23249.50673Z" fill="#fff" stroke="#000" stroke-opacity="0.2" stroke-width="0.5"/><path d="M10.00212,2.05179v-.016h4v.016a6,6,0,0,1,0,11.968v.016h-4v-.016a6,6,0,0,1,0-11.968Z" fill="#0165ac"/><path d="M11.60212,11.42779a3.6,3.6,0,0,0,0-6.784v6.784Zm-2.4-6.784a3.6,3.6,0,0,0,0,6.784v-6.784Zm1.2,8.592a5.2,5.2,0,1,1,5.2-5.2A5.2,5.2,0,0,1,10.40212,13.23579Z" fill="#fff"/></svg>