<svg xmlns="http://www.w3.org/2000/svg" viewBox="0 0 24.00002 16"><path d="M21.99725,15.74993l.00214,0A1.75235,1.75235,0,0,0,23.75,14.00416l0-11.99786A1.7886,1.7886,0,0,0,23.22974.7568,1.71972,1.71972,0,0,0,21.99725.25007l-19.99661,0A1.71846,1.71846,0,0,0,.77028.7568,1.78737,1.78737,0,0,0,.25,2.00426l0,11.98944a1.78855,1.78855,0,0,0,.52028,1.2495,1.71971,1.71971,0,0,0,1.23249.50673Z" fill="#fff" stroke="#000" stroke-opacity="0.2" stroke-width="0.5"/><path d="M12.61242,15.99993h9.38483A1.9862,1.9862,0,0,0,24,14.03027V11.67165a38.73933,38.73933,0,0,1-11.38759,4.32828Z" fill="#f27712"/><path d="M23.17242,9.29648H22.32l-.96-1.26621h-.091V9.29648H20.5738V6.15165H21.6c.80276,0,1.26621.331,1.26621.9269a.87794.87794,0,0,1-.811.90207Zm-1.0262-2.1931c0-.30621-.23173-.46345-.66207-.46345H21.269v.95172h.19862c.4469,0,.67863-.16551.67863-.48827ZM18.1407,6.15165h1.96965v.52966H18.83587v.70345H20.0607v.53793H18.83587V8.7751h1.27448v.52966H18.1407ZM15.90622,9.37924,14.4,6.14338h.76138L16.11311,8.262l.96-2.11862h.74483L16.29518,9.37924h-.389ZM9.60828,9.371A1.75807,1.75807,0,0,1,7.72139,7.71579a1.78356,1.78356,0,0,1,1.90345-1.6469,2.01733,2.01733,0,0,1,.85241.19035v.72827a1.2414,1.2414,0,0,0-.869-.35586A1.09222,1.09222,0,1,0,9.64139,8.8082a1.17136,1.17136,0,0,0,.83586-.34758v.72827a2.12964,2.12964,0,0,1-.869.18207ZM7.50622,8.33648A1.09346,1.09346,0,0,1,6.27311,9.371,1.43824,1.43824,0,0,1,5.04,8.7751l.45517-.389a.81373.81373,0,0,0,.7531.42206.48138.48138,0,0,0,.53794-.43862.36607.36607,0,0,0-.2069-.331,2.87977,2.87977,0,0,0-.48-.18207c-.65379-.2069-.87724-.43034-.87724-.869a1.00148,1.00148,0,0,1,1.109-.90206,1.67987,1.67987,0,0,1,1.051.35586l-.36414.41379a.76141.76141,0,0,0-.56276-.24828c-.29793,0-.5131.149-.5131.34759,0,.16552.12414.25655.53793.39724.79448.24828,1.02621.48,1.02621.99311ZM4.08828,6.15165h.69518V9.30476H4.08828ZM1.8538,9.30476H.82759V6.15165H1.8538c1.12552,0,1.90345.64552,1.90345,1.57242A1.51132,1.51132,0,0,1,3.12,8.94062a2.059,2.059,0,0,1-1.27448.36414Zm.811-2.3669a1.40824,1.40824,0,0,0-.95173-.24828H1.52277V8.7751h.19034a1.50475,1.50475,0,0,0,.95173-.24828,1.0499,1.0499,0,0,0,.38069-.80275A1.00436,1.00436,0,0,0,2.66484,6.93786Z"/><path d="M12.4138,6.06889A1.65518,1.65518,0,1,0,14.069,7.72407,1.64426,1.64426,0,0,0,12.4138,6.06889Z" fill="#f27712"/></svg>