<svg xmlns="http://www.w3.org/2000/svg" viewBox="0 0 24 16"><path d="M.70536,16H5.22321a2.57731,2.57731,0,0,0,2.25893-2.13333V0H2.96429C1.93647,0,.70536,1.19467.70536,3.2Z" fill="#047ab1"/><path d="M3.26924,10.816a9.77106,9.77106,0,0,1-2.56388-.34133V9.30133a4.5929,4.5929,0,0,0,2.146.61867A1.27119,1.27119,0,0,0,4.2067,8.55467V5.33333h2.146V8.55467C6.35268,9.81333,5.65241,10.816,3.26924,10.816Z" fill="#fff"/><path d="M8.61161,16h4.51786a2.57731,2.57731,0,0,0,2.25892-2.13333V0H10.87054C9.84272,0,8.61161,1.19467,8.61161,3.2Z" fill="#d42d06"/><path d="M8.61161,6.08a4.897,4.897,0,0,1,3.61428-.88533,10.95862,10.95862,0,0,1,2.033.32v1.184a4.78487,4.78487,0,0,0-1.954-.608A1.82971,1.82971,0,0,0,10.06862,8,1.84089,1.84089,0,0,0,12.305,9.92a4.85336,4.85336,0,0,0,1.954-.61867v1.17334a10.51117,10.51117,0,0,1-2.033.33066A4.897,4.897,0,0,1,8.61161,9.92Z" fill="#fff"/><path d="M16.51786,16h4.51785a2.57731,2.57731,0,0,0,2.25893-2.13333V0H18.77679C17.749,0,16.51786,1.19467,16.51786,3.2Z" fill="#67b637"/><path d="M22.16518,9.28a1.45412,1.45412,0,0,1-1.63772,1.38667h-4.0096V5.33333H20.166l.25977.01067c.82451.04267,1.43442.50133,1.43442,1.29067a1.29451,1.29451,0,0,1-1.17464,1.28v.032A1.40765,1.40765,0,0,1,22.16518,9.28ZM19.285,6.176a1.08721,1.08721,0,0,0-.14683-.01067H17.78286v1.344H19.285a.667.667,0,0,0,.51956-.672A.6465.6465,0,0,0,19.285,6.176Zm.16942,2.176a1.0283,1.0283,0,0,0-.18071-.01067H17.78286V9.80267h1.49089l.18071-.02134a.7513.7513,0,0,0,0-1.42933Z" fill="#fff"/><rect width="24" height="16" fill="none"/></svg>