<svg xmlns="http://www.w3.org/2000/svg" viewBox="0 0 24 16"><path d="M4.93955.00805h5.79377A1.2208,1.2208,0,0,1,11.85643,1.627L9.159,14.37553A2.02276,2.02276,0,0,1,7.34958,15.992H1.55637A1.22026,1.22026,0,0,1,.43326,14.37553L3.13181,1.627A2.01793,2.01793,0,0,1,4.93955.00805" fill="#dd2423"/><path d="M10.25123.00805h6.66269c.80862,0,.444.72567.25377,1.61891l-2.697,12.74857c-.18923.89013-.1302,1.61642-.94052,1.61642H6.86749a1.21747,1.21747,0,0,1-1.12142-1.61642L8.44293,1.627A2.02183,2.02183,0,0,1,10.25123.00805" fill="#16315e"/><path d="M16.64965.00805h5.79377A1.21943,1.21943,0,0,1,23.56611,1.627l-2.697,12.74857A2.02342,2.02342,0,0,1,19.05869,15.992H13.2676a1.21863,1.21863,0,0,1-1.12311-1.61642L14.84191,1.627A2.01737,2.01737,0,0,1,16.64964.00805" fill="#036862"/><path d="M6.45268,4.0936a5.66015,5.66015,0,0,1-.828-.01461c-.0216.113-.42365,2.1546-.42478,2.15631a1.565,1.565,0,0,1-.3635.8976.61173.61173,0,0,1-.42761.16385.40983.40983,0,0,1-.444-.41833l-.00494-.09405L4.04038,6.228s.422-1.86049.49751-2.10642a.19431.19431,0,0,0,.00608-.028A5.63725,5.63725,0,0,1,3.567,4.079c-.00551.02-.02585.1354-.02585.1354L3.11032,6.31132l-.037.17784-.0716.58172a.92616.92616,0,0,0,.09207.43247c.1963.3776.75623.43419,1.073.43419a1.93053,1.93053,0,0,0,1.04968-.26972A1.73949,1.73949,0,0,0,5.8878,6.51341l.04858-.20815s.43467-1.93231.50853-2.18368A.09391.09391,0,0,1,6.45268,4.0936ZM7.93162,5.65241a1.061,1.061,0,0,0-.46828.12079c-.06242.03529-.12145.076-.18373.11659l.0562-.22339L7.305,5.62878c-.36477.0813-.44639.09219-.78334.14442l-.02824.02067A11.98,11.98,0,0,1,6.27456,7.1213c-.05522.25868-.11255.51985-.17.7779l.01553.0328c.34528-.02005.45007-.02005.75016-.01461l.02429-.02907c.03813-.215.04307-.26536.12752-.70079.03968-.20645.12243-.66006.16325-.82158a.52329.52329,0,0,1,.21959-.07586c.16819,0,.14772.16151.14122.22587-.0072.108-.06849.46093-.13133.76391l-.04195.19556c-.02923.14442-.06128.2848-.09052.428L7.295,7.932a7.33441,7.33441,0,0,1,.73476-.01461l.03418-.02907c.05253-.33578.06792-.42564.16113-.91454L8.272,6.74915A1.65309,1.65309,0,0,0,8.33988,5.905.39091.39091,0,0,0,7.93162,5.65241Zm1.65214.46029c-.1809.03824-.29628.06373-.41095.08021-.11368.02006-.22453.03824-.39936.065l-.01384.01384-.01271.011c-.01822.14333-.03093.26723-.05508.41289-.02047.15064-.052.3218-.10323.56773a2.40548,2.40548,0,0,1-.08275.32008,2.97124,2.97124,0,0,0-.09095.31573l.01045.0171.00876.0157c.16339-.00855.27029-.01461.38016-.0157.10973-.00436.22341,0,.39937.00109L9.229,7.90354l.01652-.01523c.02542-.167.02923-.21189.04477-.29335.01539-.08736.04194-.20831.107-.53134.03079-.15173.0651-.303.097-.45782.03319-.15421.06793-.30609.101-.45782L9.5904,6.12964Zm.00386-.62061a.612.612,0,0,0-.64707.07462c-.19361.14457-.21564.34977-.05182.458a.61033.61033,0,0,0,.64367-.07586C9.72559,5.80113,9.74974,5.5978,9.58762,5.49209Zm.9941,2.47337a1.17619,1.17619,0,0,0,.93007-.4003,1.9046,1.9046,0,0,0,.3193-.75287,1.03883,1.03883,0,0,0-.07725-.86355.81423.81423,0,0,0-.69776-.28231,1.20528,1.20528,0,0,0-.87655.33392,1.64289,1.64289,0,0,0-.38891.83308c-.06284.3019-.13515.84537.31887,1.04761A1.21943,1.21943,0,0,0,10.58172,7.96546Zm-.026-1.10949c.07668-.3734.1672-.6868.39824-.6868.181,0,.19417.23319.11368.60783a1.78943,1.78943,0,0,1-.16989.524.27941.27941,0,0,1-.2179.15608c-.02429,0-.16875,0-.171-.23614A1.76006,1.76006,0,0,1,10.55574,6.856Zm2.1067,1.06147.026-.02907c.03686-.215.04293-.26552.12456-.70079.04081-.20645.12526-.66007.16494-.82158a.51629.51629,0,0,1,.22073-.076c.16706,0,.14672.16152.14009.22587-.00608.1082-.06737.46093-.13134.76391l-.03968.19556c-.03036.14458-.06341.2848-.09264.42813l.01271.0286a7.3094,7.3094,0,0,1,.73363-.01461l.03531-.02907c.05126-.33594.0651-.42579.16113-.91455l.04575-.22478a1.66888,1.66888,0,0,0,.07-.844.3952.3952,0,0,0-.40925-.25261,1.056,1.056,0,0,0-.46842.12078c-.06115.03529-.12244.07587-.18259.1166l.05239-.22339-.02811-.03778c-.36462.08146-.44794.09234-.78446.14457l-.02585.02068a12.4242,12.4242,0,0,1-.219,1.32743c-.05521.25868-.11255.51984-.16988.7779l.01539.0328C12.25968,7.912,12.36291,7.912,12.66244,7.91744Zm2.50882.01453c.02146-.11535.149-.799.15011-.799,0,0,.1086-.50165.11524-.51984a.28516.28516,0,0,1,.06835-.07291h.05027a2.161,2.161,0,0,0,1.42984-.34,1.70524,1.70524,0,0,0,.56812-.996,1.64887,1.64887,0,0,0,.03926-.34666.7833.7833,0,0,0-.11368-.44274c-.21409-.32972-.64043-.33578-1.13257-.33827l-.24262.00249c-.63.00855-.88261.00606-.98641-.00793-.00876.05052-.02528.14037-.02528.14037l-.22567,1.15317s-.54,2.4478-.56543,2.56314C14.85083,7.92047,15.07636,7.92047,15.17126,7.932Zm.41815-2.04516s.23993-1.149.2388-1.14462l.00776-.05892.00339-.04493.09589.01089s.49483.04679.50641.048c.19531.08317.2758.29754.2196.57736a.834.834,0,0,1-.39556.57456,1.14714,1.14714,0,0,1-.556.0953h-.1302Zm1.49386.99045c-.06341.29754-.13627.841.31549,1.03471a.81081.81081,0,0,0,.4043.08021.6415.6415,0,0,0,.38581-.19478l-.0322.13586.02048.02907c.32495-.01508.42578-.01508.77783-.01212l.03192-.02674c.0514-.33267.09984-.65571.23343-1.29214.06511-.30485.13007-.60675.19686-.91035l-.01045-.03342c-.36349.07415-.46065.09-.81031.14457l-.02655.02379-.01059.09032a.51451.51451,0,0,0-.25476-.2307.91985.91985,0,0,0-.8346.33407A1.62046,1.62046,0,0,0,17.08327,6.87726Zm.76343.01818c.07781-.36671.1672-.677.3988-.677.14645,0,.22355.14877.20788.40247-.01243.06327-.02585.13-.04181.20536-.02315.109-.04829.217-.07272.32521a.823.823,0,0,1-.08558.19028.387.387,0,0,1-.283.15063c-.02316,0-.16608,0-.171-.23194A1.74469,1.74469,0,0,1,17.8467,6.89544Zm3.98667-1.21085-.0281-.03529c-.35969.08022-.42479.093-.75524.14209l-.02429.02674-.00381.0171-.00113-.00607c-.246.62478-.2388.49-.43905.98186l-.00226-.06016-.05013-1.06627-.03149-.03529a7.42822,7.42822,0,0,1-.73364.14209l-.02711.02674a.3167.3167,0,0,0-.00607.042l.00226.00544c.04349.24469.033.19012.07668.57627.02034.1895.04745.38009.06778.56726.03432.31324.05353.46745.09547.94548-.235.42688-.29063.58839-.51686.963l.00155.00373-.15929.27733a.12536.12536,0,0,1-.0579.05783.22051.22051,0,0,1-.10436.01632h-.08826l-.1312.48036.45007.00855a.54854.54854,0,0,0,.51968-.32008l.283-.53383h-.00452l.02979-.03762C20.38532,8.419,21.83337,5.68459,21.83337,5.68459Zm-4.75011,6.30876h-.19093L17.599,9.42041h.23442l.07442-.26505.00721.29474c-.00876.1822.12145.34371.46348.317h.39555l.13614-.49543h-.14885c-.08558,0-.12526-.02379-.12032-.07478l-.0072-.29987h-.7325v.00156a9.33726,9.33726,0,0,0-1.08724.067,1.242,1.242,0,0,0-.35587.19369L16.53,8.89388h-.68519l-.14278.52653-.71612,2.61227h-.13895l-.13628.49186h1.36474l-.04576.164h.67248l.04463-.164h.18867Zm-.55993-2.05014a2.90158,2.90158,0,0,0-.31393.13478l.18161-.65758h.5444l-.13134.47911A1.61624,1.61624,0,0,0,16.52333,9.94321Zm.01045.93941s-.171.02363-.28357.05161a2.65339,2.65339,0,0,0-.31873.15359l.18754-.68431h.54722Zm-.305,1.11679h-.5461l.15831-.57752h.5444Zm1.31511-1.5959H18.331l-.11311.40325h-.7976l-.11976.44087h.6979l-.52844.81909a.22329.22329,0,0,1-.107.09841.29285.29285,0,0,1-.14178.04492h-.19361l-.133.48285H17.401a.60286.60286,0,0,0,.53352-.30485l.36237-.546.07781.55435a.25749.25749,0,0,0,.13021.18826.44806.44806,0,0,0,.17708.08317c.07937.00373.1367.00668.17483.00668h.24883l.14941-.54036h-.09815a.37691.37691,0,0,1-.16989-.02985.31756.31756,0,0,1-.02542-.11535l-.07894-.55559h-.32325l.14179-.18577h.79605l.12243-.44087h-.737l.11481-.40325h.73476l.13628-.49731H17.67788ZM10.89554,12.1117l.18373-.67281h.75509l.138-.50041h-.7558l.11538-.41414h.73857l.13684-.48455h-1.848l-.134.48455h.41984l-.112.41414h-.421l-.13952.509h.4197l-.24487.89013a.22712.22712,0,0,0,.04632.21748.20525.20525,0,0,0,.13514.10867.744.744,0,0,0,.19361.02907h.85127l.15167-.55436-.37734.05706C11.07531,12.19549,10.87351,12.18585,10.89554,12.1117Zm.08661-3.22085-.19135.38071a.43749.43749,0,0,1-.111.15857.33773.33773,0,0,1-.171.02844H10.409l-.13346.487h.33159a.69967.69967,0,0,0,.34033-.09653c.06284-.037.07937-.01586.128-.06747l.112-.1068h1.03542l.1374-.50709h-.75792l.13232-.27687Zm1.52861,3.23062c-.01765-.028-.00495-.07726.022-.17986l.283-1.03113h1.00675c.14672-.00233.25264-.0042.32155-.00964a.61741.61741,0,0,0,.24219-.08985.47417.47417,0,0,0,.176-.17862,1.59862,1.59862,0,0,0,.17384-.43357l.35573-1.30489-1.04473.00669a3.04813,3.04813,0,0,0-.46334.10991,1.88684,1.88684,0,0,0-.34712.24406l.09434-.3577h-.64537l-.90352,3.2986a2.20871,2.20871,0,0,0-.05846.27687c-.0017.06016.06891.1197.11467.16462a.37962.37962,0,0,0,.2107.04493c.08063.00668.1953.01088.35361.01088h.496l.15223-.56586-.444.04617A.11384.11384,0,0,1,12.51076,12.12147Zm.48763-1.90743h1.05744l-.06722.23194a.69144.69144,0,0,0-.13966.00249h-.91567Zm.21182-.7779h1.06635l-.07669.27935s-.50259-.00544-.58309.01089a1.1501,1.1501,0,0,0-.56106.27577Zm.80207,1.78654a.1257.1257,0,0,1-.04194.07166.19262.19262,0,0,1-.108.02068h-.15069l.0089-.28246h-.62673l-.02542,1.38091c-.001.09964.00777.15732.074.20349a1.15143,1.15143,0,0,0,.545.065h.39272l.14179-.51689-.34189.02067-.11368.00731a.12862.12862,0,0,1-.04689-.03218c-.0144-.0157-.03869-.00606-.03474-.10571l.00269-.354.35855-.01632a.44194.44194,0,0,0,.347-.1354.43691.43691,0,0,0,.11481-.23443l.06016-.3134h-.49271Z" fill="#fefefe"/><rect width="24" height="16" fill="none"/></svg>