<svg xmlns="http://www.w3.org/2000/svg" viewBox="0 0 24 16"><path d="M22,0H2A1.9931,1.9931,0,0,0,0,2V13.9a1.33915,1.33915,0,0,0,.01.2A1.98439,1.98439,0,0,0,2,16H22a1.99113,1.99113,0,0,0,1.99-1.9,1.2739,1.2739,0,0,0,.01-.2V2A1.99946,1.99946,0,0,0,22,0ZM8.28,7.73a.67089.67089,0,0,1-.65.69H3.13a.67094.67094,0,0,1-.65-.69V4.97a.66469.66469,0,0,1,.65-.69h4.5a.66464.66464,0,0,1,.65.69Z" fill-rule="evenodd" opacity="0.4" style="isolation:isolate"/><path d="M20.68595,12.54953H18.2032a.726.726,0,0,1-.82759-.82758.726.726,0,0,1,.82759-.82759h2.48275a.726.726,0,0,1,.82759.82759A.726.726,0,0,1,20.68595,12.54953Zm-4.96551,0H13.23768a.726.726,0,0,1-.82759-.82758.726.726,0,0,1,.82759-.82759h2.48276a.726.726,0,0,1,.82758.82759A.726.726,0,0,1,15.72044,12.54953Zm-4.96552,0H8.27216a.726.726,0,0,1-.82759-.82758.726.726,0,0,1,.82759-.82759h2.48276a.726.726,0,0,1,.82759.82759A.726.726,0,0,1,10.75492,12.54953Zm-4.96552,0H3.30664a.726.726,0,0,1-.82758-.82758.726.726,0,0,1,.82758-.82759H5.7894A.726.726,0,0,1,6.617,11.722.726.726,0,0,1,5.7894,12.54953Z" opacity="0.5" style="isolation:isolate"/></svg>