<svg xmlns="http://www.w3.org/2000/svg" viewBox="0 0 24 16"><rect x="0.25" y="0.25" width="23.5" height="15.5" rx="2" fill="#fff" stroke="#000" stroke-opacity="0.2" stroke-width="0.5"/><path d="M2.78773,5.91444A7.2015,7.2015,0,0,0,1,5.23659l.028-.12471H3.765c.371.013.672.12463.77.51883l.59482,2.83588.18221.85414L6.978,5.11188H8.77679L6.10288,11.27753H4.304L2.78773,5.91444ZM10.1,11.28407H8.39883l1.064-6.17219H11.1639Zm6.1668-6.0213-.23135,1.33282L15.88157,6.53a3.05382,3.05382,0,0,0-1.26719-.23633c-.67164,0-.97285.26906-.97983.53175,0,.289.36438.47938.95936.76179.98012.43994,1.43473.97832,1.42794,1.68094-.01377,1.28045-1.17584,2.10787-2.9608,2.10787a5.47764,5.47764,0,0,1-1.89724-.32849l.238-1.38552.224.09861A3.57268,3.57268,0,0,0,13.222,10.089c.48978,0,1.01491-.1906,1.0216-.6041,0-.26923-.22372-.46637-.88187-.76842-.64392-.29559-1.50487-.788-1.49091-1.67448C11.87805,5.84043,13.06105,5,14.741,5A4.43574,4.43574,0,0,1,16.26678,5.26277Zm2.261,3.83472h1.414c-.06995-.3086-.3921-1.786-.3921-1.786l-.11888-.53183c-.084.22979-.23089.60409-.22382.59092C19.20693,7.37056,18.66785,8.7429,18.52775,9.09749ZM20.6276,5.11188,22,11.284H20.4249s-.15414-.70917-.203-.92587H18.03779c-.06316.16407-.357.92587-.357.92587h-1.785l2.52683-5.66a.84586.84586,0,0,1,.88914-.51211Z" fill="#1434cb"/></svg>