<svg xmlns="http://www.w3.org/2000/svg" viewBox="0 0 522.59998 85"><path d="M522.6,58.5a26.37484,26.37484,0,0,0-26.4-26.4H424.1V20.7h94.4V0H429.8a26.44587,26.44587,0,0,0-18.7,45.1,26.15551,26.15551,0,0,0,18.7,7.7h72.1V64.2H407.5V84.9h88.6A26.45994,26.45994,0,0,0,522.6,58.5Z"/><path d="M76.7,85h61.4a21.31749,21.31749,0,0,0,21.3-21.3V.1H138.7V64.3H71V52.9H87.7a21.78843,21.78843,0,0,0,21.6-21.7V26.5A26.37485,26.37485,0,0,0,82.9.1H22.2A22.2137,22.2137,0,0,0,0,22.3V85H20.7V20.7h68V32.1H72A21.68029,21.68029,0,0,0,50.3,53.8v4.7A26.46024,26.46024,0,0,0,76.7,85Z"/><path d="M191.2,85H271V64.4H190.5V.1H169.8V63.6A21.55394,21.55394,0,0,0,191.2,85Z"/><path d="M300.8,20.8h93.9V.1H306.5a26.37483,26.37483,0,0,0-26.4,26.4v5.7h20.7V20.8Z"/><rect x="310.39999" y="32.2" width="82.19998" height="20.6"/><path d="M306.5,85h88.2V64.4H300.8V52.9H280.1v5.7A26.50353,26.50353,0,0,0,306.5,85Z"/></svg>
