<svg xmlns="http://www.w3.org/2000/svg" viewBox="0 0 154.66003 170.04108" fill="#fff"><path d="M144.03455,110.30664A22.079,22.079,0,0,1,132.59,90.95V67.53c0-9.09-3.69-21.82-9.64-32.28-5.36017-9.40723-13.55639-16.97034-21.56293-18.3974a3.53454,3.53454,0,0,1-2.91345-2.95526C97.15942,4.90369,90.40863,0,81.05,0H73.61005C64.2514,0,57.50061,4.90369,56.1864,13.89734A3.53452,3.53452,0,0,1,53.273,16.8526C45.26642,18.27966,37.07019,25.84277,31.71,35.25c-5.95,10.46-9.64,23.19-9.64,32.28V90.95a22.079,22.079,0,0,1-11.44452,19.35663A20.14452,20.14452,0,0,0,0,127.89a11.55077,11.55077,0,0,0,11.55,11.56H143.11005a11.55076,11.55076,0,0,0,11.55-11.56A20.14453,20.14453,0,0,0,144.03455,110.30664Z"/><path d="M73.257,170.04108h8.14612a20.87437,20.87437,0,0,0,20.87439-20.87439H52.38257A20.87437,20.87437,0,0,0,73.257,170.04108Z"/></svg>
