<svg xmlns="http://www.w3.org/2000/svg" viewBox="0 0 100 110"><path d="M91,10H88v5a8,8,0,0,1-1.8,5,7.9,7.9,0,0,1-12.4,0A8,8,0,0,1,72,15V10H58v5a8,8,0,0,1-1.8,5,7.9,7.9,0,0,1-12.4,0A8,8,0,0,1,42,15V10H28v5a8,8,0,0,1-1.8,5,7.9,7.9,0,0,1-12.4,0A8,8,0,0,1,12,15V10H9a9,9,0,0,0-9,9v82a9,9,0,0,0,9,9H91a9,9,0,0,0,9-9V19A9,9,0,0,0,91,10Zm-1,90H10V40H90Z"/><path d="M20,20a5,5,0,0,0,5-5V5A5,5,0,0,0,15,5V15A5,5,0,0,0,20,20Z"/><path d="M50,20a5,5,0,0,0,5-5V5A5,5,0,0,0,45,5V15A5,5,0,0,0,50,20Z"/><path d="M80,20a5,5,0,0,0,5-5V5A5,5,0,0,0,75,5V15A5,5,0,0,0,80,20Z"/></svg>
