<svg xmlns="http://www.w3.org/2000/svg" viewBox="0 0 18 18"><path d="M17.326,10.21557l-.00466.00291a1.43312,1.43312,0,0,0-.50588,1.889l.001.002a1.43313,1.43313,0,0,1-1.21708,2.10578l-.00027,0a1.43313,1.43313,0,0,0-1.38437,1.3843v0a1.43312,1.43312,0,0,1-2.10593,1.21693l-.00141-.00075a1.43313,1.43313,0,0,0-1.88917.50583l-.00277.00443a1.43312,1.43312,0,0,1-2.4311,0l-.00291-.00466a1.43312,1.43312,0,0,0-1.889-.50588l-.002.001a1.43313,1.43313,0,0,1-2.10578-1.21708l0-.00027a1.43313,1.43313,0,0,0-1.3843-1.38437h0a1.43312,1.43312,0,0,1-1.21693-2.10593l.00075-.00141A1.43313,1.43313,0,0,0,.67843,10.2183L.674,10.21553a1.43312,1.43312,0,0,1,0-2.4311l.00466-.00291a1.43312,1.43312,0,0,0,.50588-1.889l-.001-.002A1.43313,1.43313,0,0,1,2.40055,3.78476l.00027,0a1.43313,1.43313,0,0,0,1.38437-1.3843v0A1.43312,1.43312,0,0,1,5.89112,1.18351l.00141.00075A1.43313,1.43313,0,0,0,7.7817.67843L7.78447.674a1.43312,1.43312,0,0,1,2.4311,0l.00291.00466a1.43312,1.43312,0,0,0,1.889.50588l.002-.001a1.43313,1.43313,0,0,1,2.10578,1.21708l0,.00027a1.43313,1.43313,0,0,0,1.3843,1.38437h0a1.43312,1.43312,0,0,1,1.21693,2.10593l-.00075.00141a1.43313,1.43313,0,0,0,.50583,1.88917l.00443.00277A1.43312,1.43312,0,0,1,17.326,10.21557Z" fill="#9F04DC"/><polygon points="13.18 7.15 9.52 10.89 7.91 12.49 6.33 10.85 4.82 9.28 6.43 7.67 7.94 9.21 11.61 5.51 13.18 7.15" fill="#fff"/></svg>
