<svg viewBox="0 0 20 20" fill="none" xmlns="http://www.w3.org/2000/svg">
<path fill-rule="evenodd" clip-rule="evenodd" d="M2.51561 4.59417e-05C2.39734 0.00178979 2.28447 0.0495095 2.20092 0.133209L0.133206 2.20091C-0.0441907 2.37847 -0.0443492 2.66621 0.133048 2.84376L7.29085 9.99868L0.133048 17.1564C-0.0443492 17.3338 -0.0443492 17.6216 0.133048 17.7991L2.20076 19.8668C2.37816 20.0444 2.66622 20.0444 2.84377 19.8668L9.99874 12.7091L17.1565 19.8668C17.3341 20.0442 17.6217 20.0442 17.7991 19.8668L19.8668 17.7991C20.0442 17.6216 20.0443 17.3338 19.867 17.1564L12.7091 9.99868L19.867 2.84376C20.0443 2.66621 20.0443 2.37847 19.867 2.20091L17.7992 0.133209C17.6218 -0.0441863 17.3339 -0.0441863 17.1564 0.133209L9.99858 7.29097L2.84362 0.133209C2.75674 0.0463358 2.63847 -0.00169916 2.51561 4.59417e-05Z" fill="white"/>
</svg>
