<?xml version="1.0" encoding="utf-8"?>
<!-- Generator: Adobe Illustrator 25.0.0, SVG Export Plug-In . SVG Version: 6.00 Build 0)  -->
<svg version="1.1" id="Layer_1" xmlns="http://www.w3.org/2000/svg" xmlns:xlink="http://www.w3.org/1999/xlink" x="0px" y="0px"
	 viewBox="0 0 24 24" style="enable-background:new 0 0 24 24;" xml:space="preserve">
<style type="text/css">
	.st0{fill:#FFFFFF;stroke:#FFFFFF;stroke-miterlimit:10;}
</style>
<g>
	<g>
		<path class="st0" d="M3.4,22c-0.4,0-0.7-0.1-1-0.4c-0.6-0.6-0.6-1.5,0-2L19.6,2.4c0.6-0.6,1.5-0.6,2,0c0.6,0.6,0.6,1.5,0,2
			L4.4,21.6C4.2,21.9,3.8,22,3.4,22z"/>
	</g>
	<g>
		<path class="st0" d="M20.6,22c-0.4,0-0.7-0.1-1-0.4L2.4,4.4c-0.6-0.6-0.6-1.5,0-2c0.6-0.6,1.5-0.6,2,0l17.1,17.1
			c0.6,0.6,0.6,1.5,0,2C21.3,21.9,20.9,22,20.6,22z"/>
	</g>
</g>
</svg>
