<svg width="15" height="15" viewBox="0 0 15 15" fill="none" xmlns="http://www.w3.org/2000/svg">
<path d="M14.0625 5.24991C13.5449 5.24991 13.1251 4.83033 13.1251 4.31241V3.65349C13.1251 3.60379 13.1052 3.55618 13.0701 3.52087C12.9969 3.44762 12.8781 3.44762 12.8049 3.52087L10.1384 6.18739C9.77247 6.5536 9.17869 6.5536 8.81274 6.18739C8.44653 5.82144 8.44653 5.22765 8.81274 4.86169L11.4792 2.19518C11.5143 2.15986 11.5341 2.11225 11.5341 2.06255C11.5341 1.95897 11.4502 1.875 11.3466 1.875H10.6877C10.1698 1.875 9.75021 1.45517 9.75021 0.9375C9.75021 0.419833 10.1698 0 10.6877 0H14.0625C14.5802 0 15 0.419833 15 0.9375V4.31237C15 4.83029 14.5802 5.24991 14.0625 5.24991ZM0.937728 9.7493C1.45539 9.7493 1.87522 10.1691 1.87522 10.6868V11.346C1.87522 11.3959 1.89483 11.4436 1.93015 11.4786C2.00339 11.5519 2.12214 11.5519 2.19538 11.4786L4.86213 8.81156C5.22834 8.44561 5.82185 8.44561 6.18807 8.81156C6.55401 9.17777 6.55427 9.77155 6.18833 10.1378L3.52132 12.8046C3.486 12.8399 3.46639 12.8875 3.46639 12.9372C3.46639 13.0408 3.55035 13.1247 3.65394 13.1247H4.31311C4.83077 13.1247 5.2506 13.5446 5.2506 14.0622C5.2506 14.5799 4.83077 15 4.31311 15H0.937487C0.419827 15 0 14.5802 0 14.0625V10.6868C0 10.1692 0.420068 9.7493 0.937728 9.7493Z" fill="white"/>
</svg>
