<?xml version="1.0" encoding="utf-8"?>
<svg version="1.1" id="Layer_1" xmlns="http://www.w3.org/2000/svg" xmlns:xlink="http://www.w3.org/1999/xlink" x="0px" y="0px"
	 viewBox="0 0 54 54" style="enable-background:new 0 0 54 54;" xml:space="preserve">
<g>
	<path d="M42.5,29c-1.4,0-2.5,1.1-2.5,2.5V49H5V14h17.5c1.4,0,2.5-1.1,2.5-2.5S23.9,9,22.5,9h-20C1.1,9,0,10.1,0,11.5v40
		C0,52.9,1.1,54,2.5,54h40c1.4,0,2.5-1.1,2.5-2.5v-20C45,30.1,43.9,29,42.5,29z"/>
	<path d="M54,2c0-0.1,0-0.1-0.1-0.2c0-0.1,0-0.2-0.1-0.2c0-0.1-0.1-0.2-0.1-0.2c0-0.1-0.1-0.1-0.1-0.2c-0.2-0.3-0.4-0.5-0.7-0.7
		c-0.1,0-0.1-0.1-0.2-0.1c-0.1,0-0.2-0.1-0.3-0.1c-0.1,0-0.2-0.1-0.2-0.1c-0.1,0-0.1-0.1-0.2-0.1c-0.2,0-0.3,0-0.5,0h-20
		C30.1,0,29,1.1,29,2.5S30.1,5,31.5,5h14L23.7,26.7c-1,1-1,2.6,0,3.5c0.5,0.5,1.1,0.7,1.8,0.7s1.3-0.2,1.8-0.7L49,8.5v14
		c0,1.4,1.1,2.5,2.5,2.5s2.5-1.1,2.5-2.5v-20C54,2.3,54,2.2,54,2z"/>
</g>
</svg>
