<svg xmlns="http://www.w3.org/2000/svg" viewBox="0 0 18 18"><path d="M.83146,10.809h.98876a.82658.82658,0,0,1,.76405.5393,5.85289,5.85289,0,0,0,.22472.5618.78712.78712,0,0,1-.1573.9214l-.69663.6966a.81384.81384,0,0,0,0,1.1461l1.39325,1.3932a.81382.81382,0,0,0,1.14607,0l.69663-.6966a.82347.82347,0,0,1,.92135-.1573,4.17821,4.17821,0,0,0,.5618.2247.82665.82665,0,0,1,.53932.764v.9888a.80566.80566,0,0,0,.809.809H10a.80569.80569,0,0,0,.809-.809v-.9888a.82663.82663,0,0,1,.5393-.764,5.84488,5.84488,0,0,0,.5618-.2247.7871.7871,0,0,1,.9214.1573l.6966.6966a.81386.81386,0,0,0,1.1461,0l1.3932-1.3932a.81386.81386,0,0,0,0-1.1461l-.6966-.6966a.82355.82355,0,0,1-.1573-.9214,4.17715,4.17715,0,0,0,.2247-.5618.82663.82663,0,0,1,.764-.5393h.9888A.80569.80569,0,0,0,18,10V8.02247a.80566.80566,0,0,0-.809-.809h-.9888a.82665.82665,0,0,1-.764-.53932,5.84384,5.84384,0,0,0-.2247-.5618.787.787,0,0,1,.1573-.92135l.6966-.69663a.81382.81382,0,0,0,0-1.14607L14.6742,1.95506a.81384.81384,0,0,0-1.1461,0l-.6966.69663a.82352.82352,0,0,1-.9214.1573,4.18116,4.18116,0,0,0-.5618-.22472.85672.85672,0,0,1-.5393-.78652V.809A.80566.80566,0,0,0,10,0H8.02247a.80562.80562,0,0,0-.809.809v.98876a.8266.8266,0,0,1-.53932.764,5.84925,5.84925,0,0,0-.5618.22472A.787.787,0,0,1,5.191,2.62921l-.69663-.69663a.81382.81382,0,0,0-1.14607,0L1.95506,3.32584a.8138.8138,0,0,0,0,1.14607l.69663.69663a.82343.82343,0,0,1,.1573.92135,4.18223,4.18223,0,0,0-.22472.5618.845.845,0,0,1-.78652.56179H.809a.80562.80562,0,0,0-.809.809V10A.83994.83994,0,0,0,.83146,10.809ZM9.01124,6.08989A2.92136,2.92136,0,1,1,6.08989,9.01124,2.91555,2.91555,0,0,1,9.01124,6.08989Z" fill="#fff"/></svg>