<svg width="71" height="84" viewBox="0 0 71 84" fill="white" xmlns="http://www.w3.org/2000/svg">
<path fill-rule="evenodd" clip-rule="evenodd" d="M54.4527 28.3084C52.1493 30.982 49.9009 32.329 47.7496 32.329C47.2586 32.329 46.7729 32.2588 46.2929 32.1183C43.7492 31.3755 41.696 28.6802 40.1905 24.1082C39.1563 20.9667 38.7425 18.0452 38.7251 17.9228C38.6351 17.2751 38.9445 16.6367 39.5103 16.3041C40.0756 15.971 40.7865 16.0087 41.3135 16.3993L54.1899 25.9525C54.5515 26.2207 54.7854 26.6269 54.8353 27.0732C54.8852 27.5201 54.7465 27.967 54.4528 28.3082L54.4527 28.3084ZM42.0853 46.2751C42.0853 49.9864 39.0518 53.0061 35.323 53.0061C31.5941 53.0061 28.56 49.9866 28.56 46.2751V38.286C28.56 34.5751 31.5941 31.5549 35.323 31.5549C39.0518 31.5549 42.0853 34.5751 42.0853 38.286V46.2751ZM24.6104 32.1179C24.1304 32.2583 23.6446 32.3285 23.1537 32.3285C21.0024 32.3285 18.754 30.9821 16.4506 28.3079C16.1569 27.9667 16.0182 27.5198 16.0681 27.0729C16.118 26.6266 16.3519 26.2204 16.7135 25.9522L29.5899 16.3989C30.1168 16.0084 30.8278 15.9706 31.3931 16.3038C31.9589 16.6363 32.2683 17.2747 32.1783 17.9225C32.1609 18.0449 31.7471 20.9664 30.7129 24.1079C29.2068 28.6799 27.1542 31.3751 24.6105 32.118L24.6104 32.1179ZM64.4706 36.987C64.5518 35.9534 64.5925 34.9076 64.5925 33.8734C64.5925 24.8744 61.5931 16.4029 56.1477 10.0188C50.6366 3.55829 43.287 0 35.4532 0C27.6184 0 20.2692 3.55814 14.7572 10.0188C9.31112 16.4033 6.31235 24.8747 6.31235 33.8734C6.31235 34.2501 6.29726 34.6226 6.28217 35.0173C6.25722 35.6487 6.23168 36.2987 6.26882 36.9777C5.34315 39.7013 -0.609588 57.9693 0.119304 75.1992C0.140777 75.7041 0.397296 76.1701 0.813994 76.4597C1.23011 76.7499 1.75824 76.8294 2.24283 76.6762C2.33801 76.6454 4.6078 75.92 7.04466 74.7134C8.72649 73.88 10.0666 73.0332 11.077 72.1621C12.0695 74.9241 13.8564 78.8305 16.5922 81.1147C17.1626 81.5912 17.9856 81.6226 18.5903 81.1896C18.6605 81.1391 20.333 79.9384 22.0672 78.2849C23.3323 77.0783 24.2951 75.9589 24.9655 74.9107C27.1609 77.4208 31.0551 81.4223 34.7416 82.9503C34.9419 83.0333 35.1549 83.0751 35.3678 83.0751C35.5814 83.0751 35.7938 83.0333 35.9946 82.9503C39.6805 81.4223 43.5748 77.4206 45.7708 74.9107C46.4411 75.9588 47.4039 77.0783 48.6691 78.2849C50.4032 79.9383 52.0753 81.1391 52.146 81.1896C52.7507 81.6226 53.5737 81.5912 54.1441 81.1147C56.8799 78.8305 58.6668 74.9241 59.6592 72.1621C60.6696 73.0332 62.0096 73.8799 63.6916 74.7134C66.1279 75.92 68.3984 76.6454 68.4935 76.6762C68.978 76.8294 69.5056 76.7499 69.9223 76.4597C70.3384 76.1701 70.5955 75.7041 70.6164 75.1992C71.3447 57.9887 65.406 39.7411 64.4705 36.9866L64.4706 36.987Z" />
</svg>
