<svg xmlns="http://www.w3.org/2000/svg" xmlns:xlink="http://www.w3.org/1999/xlink" viewBox="0 0 24 24"><defs><radialGradient id="a" cx="-1043.05919" cy="-550.72749" r="12.00102" gradientTransform="matrix(0, -1.98198, -1.8434, 0, -1008.83457, -2041.47391)" gradientUnits="userSpaceOnUse"><stop offset="0" stop-color="#fd5"/><stop offset="0.1" stop-color="#fd5"/><stop offset="0.5" stop-color="#ff543e"/><stop offset="1" stop-color="#c837ab"/></radialGradient><radialGradient id="b" cx="-43.12481" cy="318.75123" r="12.00102" gradientTransform="matrix(0.17389, 0.86872, 3.58082, -0.71718, -1137.91299, 267.79432)" gradientUnits="userSpaceOnUse"><stop offset="0" stop-color="#3771c8"/><stop offset="0.128" stop-color="#3771c8"/><stop offset="1" stop-color="#60f" stop-opacity="0"/></radialGradient></defs><path d="M12.00392,0C6.994,0,5.52883.00517,5.244.0288A5.95246,5.95246,0,0,0,2.87917.62331,4.79052,4.79052,0,0,0,1.50035,1.63288,5.15172,5.15172,0,0,0,.11046,4.55226,21.66915,21.66915,0,0,0,.00082,8.095c-.00185.95565,0,2.21336,0,3.90033,0,5.0072.00554,6.47132.02953,6.75565a6.03023,6.03023,0,0,0,.5722,2.319,5.05553,5.05553,0,0,0,3.27631,2.67715,8.51267,8.51267,0,0,0,1.74244.23079c.29718.01292,3.32615.02215,6.357.02215s6.06163-.00369,6.35142-.01846a8.19622,8.19622,0,0,0,1.8052-.23633,5.02471,5.02471,0,0,0,3.27631-2.68269,5.93149,5.93149,0,0,0,.56574-2.2741C23.99317,18.58163,24,15.28468,24,11.99215c0-3.29308-.00738-6.58394-.02363-6.79073a5.86477,5.86477,0,0,0-.57718-2.29681A4.75744,4.75744,0,0,0,22.372,1.497,5.18042,5.18042,0,0,0,19.45027.11,21.621,21.621,0,0,0,15.90965,0Z" fill="url(#a)"/><path d="M12.00392,0C6.994,0,5.52883.00517,5.244.0288A5.95246,5.95246,0,0,0,2.87917.62331,4.79052,4.79052,0,0,0,1.50035,1.63288,5.15172,5.15172,0,0,0,.11046,4.55226,21.66915,21.66915,0,0,0,.00082,8.095c-.00185.95565,0,2.21336,0,3.90033,0,5.0072.00554,6.47132.02953,6.75565a6.03023,6.03023,0,0,0,.5722,2.319,5.05553,5.05553,0,0,0,3.27631,2.67715,8.51267,8.51267,0,0,0,1.74244.23079c.29718.01292,3.32615.02215,6.357.02215s6.06163-.00369,6.35142-.01846a8.19622,8.19622,0,0,0,1.8052-.23633,5.02471,5.02471,0,0,0,3.27631-2.68269,5.93149,5.93149,0,0,0,.56574-2.2741C23.99317,18.58163,24,15.28468,24,11.99215c0-3.29308-.00738-6.58394-.02363-6.79073a5.86477,5.86477,0,0,0-.57718-2.29681A4.75744,4.75744,0,0,0,22.372,1.497,5.18042,5.18042,0,0,0,19.45027.11,21.621,21.621,0,0,0,15.90965,0Z" fill="url(#b)"/><path d="M11.99838,3.13873c-2.40619,0-2.70817.01052-3.65322.05354A6.50008,6.50008,0,0,0,6.19479,3.604,4.53267,4.53267,0,0,0,3.60273,6.19566a6.47528,6.47528,0,0,0-.41162,2.151c-.04227.94531-.05334,1.24756-.05334,3.65441s.0107,2.708.05353,3.65329a6.51452,6.51452,0,0,0,.41161,2.151A4.53447,4.53447,0,0,0,6.19369,20.398a6.50551,6.50551,0,0,0,2.15073.41173c.94505.043,1.24684.05355,3.65285.05355,2.40638,0,2.70743-.01053,3.65249-.05355a6.50944,6.50944,0,0,0,2.15147-.41173,4.54011,4.54011,0,0,0,2.591-2.59258,6.57064,6.57064,0,0,0,.41161-2.151c.04246-.94531.05353-1.24662.05353-3.65347s-.01107-2.70891-.05353-3.65422a6.56747,6.56747,0,0,0-.41161-2.15095A4.53349,4.53349,0,0,0,17.80067,3.604a6.52029,6.52029,0,0,0-2.15221-.41173c-.94505-.043-1.24592-.05354-3.65285-.05354Zm-.7948,1.59706c.23589-.00037.4991,0,.7948,0,2.36559,0,2.646.00849,3.58013.051a4.904,4.904,0,0,1,1.645.3052,2.936,2.936,0,0,1,1.68116,1.682A4.89771,4.89771,0,0,1,19.20976,8.419c.04246.93423.05168,1.21487.05168,3.58s-.00922,2.64577-.05168,3.58a4.90265,4.90265,0,0,1-.30511,1.64506,2.93839,2.93839,0,0,1-1.68116,1.68088,4.88607,4.88607,0,0,1-1.645.30538c-.934.04247-1.21455.0517-3.58013.0517-2.36577,0-2.64615-.00923-3.58013-.0517a4.91358,4.91358,0,0,1-1.64516-.30556,2.93573,2.93573,0,0,1-1.6819-1.68144,4.8979,4.8979,0,0,1-.30512-1.64506c-.04245-.93423-.05094-1.21487-.05094-3.58147s.00849-2.64576.05094-3.58a4.90789,4.90789,0,0,1,.30512-1.64543A2.93658,2.93658,0,0,1,6.77309,5.089a4.89352,4.89352,0,0,1,1.64516-.30556c.81733-.03693,1.13407-.048,2.78533-.04985Z" fill="#fff"/><polygon points="1.998 7.45 1.998 7.45 1.998 7.45 1.998 7.45" fill="#fff"/><path d="M11.99824,7.44988A4.55069,4.55069,0,1,0,16.54755,12.001,4.55075,4.55075,0,0,0,11.99824,7.44988Zm.00012,7.50525a2.9541,2.9541,0,1,1,2.95331-2.9541A2.95369,2.95369,0,0,1,11.99836,14.95513Z" fill="#fff"/><circle cx="16.72771" cy="7.27011" r="1.06319" fill="#fff"/></svg>