<svg xmlns="http://www.w3.org/2000/svg" viewBox="0 0 17.7196 17.72455"><path d="M8.86061,0C6.45442,0,6.15244.01052,5.20739.05354A6.50019,6.50019,0,0,0,3.057.46527,4.53269,4.53269,0,0,0,.465,3.05693a6.47525,6.47525,0,0,0-.41162,2.151C.01107,6.15324,0,6.45549,0,8.86234s.0107,2.708.05353,3.65329a6.51469,6.51469,0,0,0,.41161,2.151,4.53449,4.53449,0,0,0,2.59078,2.59264,6.50547,6.50547,0,0,0,2.15073.41173c.94505.043,1.24684.05355,3.65285.05355,2.40638,0,2.70743-.01053,3.65249-.05355a6.50935,6.50935,0,0,0,2.15147-.41173,4.54011,4.54011,0,0,0,2.591-2.59258,6.57067,6.57067,0,0,0,.41161-2.151c.04246-.94531.05353-1.24662.05353-3.65347s-.01107-2.70891-.05353-3.65422a6.56742,6.56742,0,0,0-.41161-2.151A4.53351,4.53351,0,0,0,14.6629.46527,6.52031,6.52031,0,0,0,12.51069.05354C11.56564.01054,11.26477,0,8.85784,0Zm-.7948,1.59706c.23589-.00037.4991,0,.7948,0,2.36559,0,2.646.00849,3.58013.051a4.90405,4.90405,0,0,1,1.645.3052,2.936,2.936,0,0,1,1.68116,1.682,4.89791,4.89791,0,0,1,.30509,1.645c.04246.93423.05168,1.21487.05168,3.58s-.00922,2.64577-.05168,3.58a4.90256,4.90256,0,0,1-.30511,1.64506,2.93842,2.93842,0,0,1-1.68116,1.68088,4.88607,4.88607,0,0,1-1.645.30538c-.934.04247-1.21455.0517-3.58013.0517-2.36577,0-2.64615-.00923-3.58013-.0517A4.91343,4.91343,0,0,1,3.6353,15.766a2.93573,2.93573,0,0,1-1.6819-1.68144,4.89773,4.89773,0,0,1-.30512-1.64506c-.04245-.93423-.05094-1.21487-.05094-3.58147s.00849-2.64576.05094-3.58A4.9078,4.9078,0,0,1,1.9534,3.63263,2.93662,2.93662,0,0,1,3.63532,1.95027a4.89347,4.89347,0,0,1,1.64516-.30556c.81733-.03693,1.13407-.048,2.78533-.04985Z"/><path d="M8.86047,4.31115a4.55069,4.55069,0,1,0,4.54931,4.55207V8.86227A4.55076,4.55076,0,0,0,8.86047,4.31115Zm.00012,7.50525A2.9541,2.9541,0,1,1,11.8139,8.86151V8.8623a2.95369,2.95369,0,0,1-2.95328,2.9541Z"/><circle cx="13.58994" cy="4.13138" r="1.06319"/></svg>