<svg xmlns="http://www.w3.org/2000/svg" viewBox="0 0 188.40425 188.39182"><path d="M79.91992,129.69135c-.00707-.00707-.02122-.00707-.02829-.01414-.5374-.28285-1.08187-.57276-1.6122-.87682-.5374-.31112-1.08187-.62932-1.6122-.96166-.43841-.2687-.86975-.54447-1.30108-.83439q-.49851-.3288-.97581-.67882a5.97519,5.97519,0,0,1-.50911-.35355c-.26871-.18385-.52326-.3677-.77075-.57276q-.35-.244-.67882-.50912c-.21921-.16263-.43841-.33941-.65761-.51619-.396-.31112-.77782-.63639-1.15966-.96166a.615.615,0,0,1-.10606-.09192c-.43134-.36063-.8556-.74247-1.2728-1.13138-.52326-.48083-1.03944-.96873-1.54856-1.47785" fill="none"/><path d="M156.07532,32.32274a24.99206,24.99206,0,0,1,0,35.35534l-12.233,12.233" fill="none"/><path d="M98.96937,110.01964a24.91258,24.91258,0,0,1-13.60473-6.98622" fill="none"/><path d="M108.48433,58.70047c.00708.00708.02122.00708.02829.01415.5374.28284,1.08187.57275,1.6122.87681.5374.31113,1.08188.62932,1.61221.96166.4384.26871.86974.54448,1.30107.83439q.49851.3288.97581.67882a5.97318,5.97318,0,0,1,.50912.35356c.2687.18384.52326.36769.77074.57275q.35.244.67883.50912c.2192.16263.4384.33941.6576.51619.396.31112.77782.63639,1.15966.96166a.61512.61512,0,0,1,.10607.09193c.43133.36062.85559.74246,1.27279,1.13137.52326.48083,1.03944.96873,1.54856,1.47785" fill="none"/><path d="M32.32893,156.06908a24.99206,24.99206,0,0,1,0-35.35534l12.233-12.233" fill="none"/><path d="M89.43488,78.37219a24.9125,24.9125,0,0,1,13.60473,6.98621" fill="none"/><path d="M133.65755,90.09582a49.87509,49.87509,0,0,1-12.94026,48.2956L85.36195,173.74676a50,50,0,1,1-70.71068-70.71068L39.39293,78.29442a50.11568,50.11568,0,0,0,5.169,30.18639L32.32894,120.71375a25,25,0,0,0,35.35534,35.35534l22.419-22.419,12.93633-12.93634a24.8699,24.8699,0,0,0,6.46849-11.2109,25.19554,25.19554,0,0,0,.85713-6.46677A25.00146,25.00146,0,0,0,89.4349,78.3722,24.9139,24.9139,0,0,1,92.433,74.75181l16.05133-16.05133c.00708.00708.02115.00708.02823.01416.53745.28281,1.08194.57275,1.61222.8768.53741.31109,1.0819.62934,1.61223.96166.4384.2687.86972.54448,1.301.83442q.49854.3288.97581.6788a5.96713,5.96713,0,0,1,.5091.35355c.2687.18385.52329.36766.77076.57275q.35.244.67884.50914c.2192.16258.4384.3394.6576.51613.396.31113.7778.63642,1.15963.9617a.615.615,0,0,1,.10608.09193c.43132.36063.85561.74245,1.27283,1.13135.52325.48087,1.03942.96874,1.54856,1.47787A49.7691,49.7691,0,0,1,133.65755,90.09582Z" fill="#fff"/><path d="M188.40425,50.00044A49.84107,49.84107,0,0,1,173.753,85.35574L149.01132,110.0974a50.11568,50.11568,0,0,0-5.169-30.18639l12.23294-12.23294A25,25,0,0,0,120.72,32.32273l-22.419,22.419L85.36463,67.67807A24.87,24.87,0,0,0,78.89614,78.889a25.19559,25.19559,0,0,0-.85713,6.46677,25.00148,25.00148,0,0,0,20.93035,24.66389A24.91508,24.91508,0,0,1,95.97123,113.64L79.9199,129.69134c-.00708-.00708-.02115-.00708-.02823-.01415-.53745-.28282-1.08193-.57276-1.61222-.87681-.53741-.31108-1.0819-.62933-1.61223-.96165-.4384-.26871-.86972-.54449-1.30105-.83443q-.49854-.3288-.97581-.67879a5.96954,5.96954,0,0,1-.5091-.35356c-.2687-.18385-.52329-.36766-.77076-.57275q-.35-.244-.67884-.50914c-.2192-.16258-.4384-.3394-.6576-.51613-.396-.31113-.7778-.63641-1.15963-.9617a.61491.61491,0,0,1-.10608-.09193c-.43132-.36063-.85561-.74245-1.27283-1.13135-.52325-.48087-1.03942-.96873-1.54856-1.47787a49.93662,49.93662,0,0,1,0-70.71068L103.0423,14.64506a50.00661,50.00661,0,0,1,85.36195,35.35538Z" fill="#fff"/></svg>