<svg xmlns="http://www.w3.org/2000/svg" viewBox="0 0 4051.9 659">
  <path id="logo-outline-ru" d="M643,7.8h.1c109,0,197.4,88.3,197.4,197.3v36.8c-.4,88.6-71.9,160.5-160.5,161.3H543.5V505.5h538.9V7.8h146.5V493.9A158.2,158.2,0,0,1,1070.7,652h-476c-109.3-.1-197.9-88.9-197.7-198.2v-37A161.1,161.1,0,0,1,558.1,255.9H694.7V153.5H153.5V652H7V172.9C7.1,81.7,81,7.8,172.1,7.8H643m0-7H172.1C77.1.8.1,77.9,0,172.9V659H160.5V160.5H687.7v88.4H558.1A168.1,168.1,0,0,0,390,416.8v36.8c-.2,113.2,91.4,205.2,204.7,205.4h476c91.2,0,165.1-73.9,165.2-165.1V.8H1075.4V498.5H550.5V410.2H680c92.4-.8,167.1-75.8,167.5-168.3V205.5C847.6,92.5,756.1.9,643.2.8Z"/>
  <path id="logo-outline-l" d="M1470,7.8V506.3h624.2V652H1482.5c-87.5-.6-158.3-71.4-159-158.9V7.8H1470m7-7H1316.5V493.1a167.1,167.1,0,0,0,166,165.9h618.7V499.3H1477V.8Z"/>
  <path id="logo-outline-e1" d="M2376.3,7.8h677V154.3H2325.2v88.4H2178.7V205.1c0-109,88.4-197.3,197.4-197.3h.2m-.1-7c-112.8,0-204.4,91.4-204.5,204.3v44.6h160.5V161.3h728.1V.8H2376.2Z"/>
  <path id="logo-outline-e2" d="M3037,256.7V402.4H2413.7V256.7H3037m7-7H2406.7V409.4H3044Z"/>
  <path id="logo-outline-e3" d="M2325.2,417.2v89.1h728.1V652H2376.5a198.5,198.5,0,0,1-197.8-197.6V417.2h146.5m7-7H2171.7v44.2c.5,112.8,91.9,204.2,204.7,204.6h683.9V499.3H2332.2Z"/>
  <path id="logo-outline-s" d="M4013.2,7V153.5h-732V255.9h566.4c109.2.3,197.5,89.1,197.1,198.3s-88.9,197.2-197.9,197.1H3166.5V504.8h732V402.4H3331.1a195.8,195.8,0,0,1-138.7-57.7c-77.2-77.4-77-202.8.5-279.9A197.8,197.8,0,0,1,3332.4,7h680.8m7-7H3332.4c-113.2.2-204.9,92.2-204.7,205.4a205.4,205.4,0,0,0,59.7,144.3,203,203,0,0,0,143.7,59.7h560.4v88.4h-732V658.3h687.3c113.1,0,204.9-91.6,205.1-204.7S3960.6,249,3847.6,248.9H3288.2V160.5h732Z"/>
</svg>
