<svg xmlns="http://www.w3.org/2000/svg" viewBox="0 0 4051.94629 659.04218"><path d="M4013.15737,7V153.49609H3281.23281V255.88531h566.03711l.18091-.00012.18848.00012A197.6914,197.6914,0,0,1,3846.798,651.267l-.31763-.00025H3166.52578V504.77057h731.92456V402.38141h-7l-559.06616.00012c-.417.00256-.82568.004-1.24243.004a195.80482,195.80482,0,0,1-138.74194-57.64319A197.98439,197.98439,0,0,1,3332.42739,7h680.73m7-7h-687.73c-113.24389.19611-204.8872,92.15747-204.69091,205.40131A205.0467,205.0467,0,0,0,3187.43789,349.68a202.80536,202.80536,0,0,0,143.70386,59.70557c.43115,0,.85425-.00134,1.28564-.00415h559.023v88.38916H3159.52578V658.26678h686.95459c.10376.00013.21387.00025.31763.00025,113.10181,0,204.89209-91.55078,205.14819-204.691.10791-112.9397-91.36059-204.58295-204.30029-204.69068l-.19507-.00012-.19531.00012H3288.23281V160.49609h731.92456V0Z"/><path d="M642.955,7.77515l.18854.00012A197.32551,197.32551,0,0,1,840.45065,205.46594v36.413A161.935,161.935,0,0,1,679.95272,403.1568H543.494V505.546h538.9079V7.77527H1228.898V493.88812a158.28369,158.28369,0,0,1-158.14819,158.15406H594.70468A197.98728,197.98728,0,0,1,396.99783,453.576V416.83527a161.09489,161.09489,0,0,1,161.09332-160.95H694.72982V153.49615H153.49616v498.546H7V172.90594A165.23219,165.23219,0,0,1,172.12634,7.77527H642.778l.177-.00012m.00006-7L642.76.77527H172.12634A172.23245,172.23245,0,0,0,0,172.90161V659.04218H160.49616v-498.546H687.72982v88.38916H558.24752l-.15637-.00006A168.095,168.095,0,0,0,389.99783,416.82892V453.576c-.17032,113.24377,91.44717,205.20849,204.69085,205.46619h476.0611A165.28373,165.28373,0,0,0,1235.898,493.89374V.77527H1075.40188V498.546H550.494V410.1568H679.97634A168.9352,168.9352,0,0,0,847.45065,241.9071V205.46594C847.55831,92.52612,756.09.88293,643.15017.77527L642.955.77515Z"/><path d="M1470.02981,7.77521V506.32135h624.15173V652.04218l-611.67443.00024a160.11761,160.11761,0,0,1-158.97339-158.92383V7.77521h146.49609m7-7H1316.53372V493.11859a167.11712,167.11712,0,0,0,165.92346,165.92359h618.72436V499.32135H1477.02981V.77521Z"/><path d="M2376.32266,7.77521l.106.00012h676.853V154.27142H2325.234v88.38929H2178.73794V205.08234A197.3109,197.3109,0,0,1,2376.22866,7.77521h.094m-.09351-7c-112.85449-.00727-204.3833,91.42267-204.49121,204.30035q-.00036.1952,0,.3905v44.19465H2332.234V161.27142h728.04761V.77533h-683.853l-.19946-.00012Z"/><path d="M3036.99941,256.66064V402.38141H2413.6669V256.66064h623.33251m7-7H2406.6669V409.38141h637.33251V249.66064Z"/><path d="M2325.23379,417.1568v89.16455h728.0481V652.04218H2376.456a198.49339,198.49339,0,0,1-197.718-197.6908V417.1568h146.49585m7-7H2171.73794v44.19458c.43994,112.86487,91.82593,204.25073,204.69067,204.6908h683.85328V499.32135h-728.0481V410.1568Z"/></svg>