<svg xmlns="http://www.w3.org/2000/svg" viewBox="0 0 57 57"><rect width="57" height="57" rx="9" fill="#f7f7f7"/><path d="M46,10.5,30.8,21.8l2.8-6.7Z" fill="#e2761b" stroke="#e2761b" stroke-linecap="round" stroke-linejoin="round" stroke-width="0.06"/><path d="M11,10.5,26,21.9l-2.6-6.8ZM40.5,36.6l-4,6.2,8.6,2.3,2.5-8.4Zm-31.1.1,2.5,8.4,8.6-2.3-4-6.2Z" fill="#e4761b" stroke="#e4761b" stroke-linecap="round" stroke-linejoin="round" stroke-width="0.06"/><path d="M20,26.1l-2.4,3.7,8.6.4-.3-9.3Zm17,0-6-5.3-.2,9.4,8.6-.4ZM20.5,42.8l5.2-2.5-4.5-3.5Zm10.8-2.5,5.2,2.5-.7-6Z" fill="#e4761b" stroke="#e4761b" stroke-linecap="round" stroke-linejoin="round" stroke-width="0.06"/><path d="M36.5,42.8l-5.2-2.5.4,3.3V45Zm-16,0L25.3,45V43.6l.4-3.3Z" fill="#d7c1b3" stroke="#d7c1b3" stroke-linecap="round" stroke-linejoin="round" stroke-width="0.06"/><path d="M25.4,34.6l-4.3-1.3,3-1.4Zm6.2,0,1.3-2.7,3,1.4Z" fill="#233447" stroke="#233447" stroke-linecap="round" stroke-linejoin="round" stroke-width="0.06"/><path d="M20.5,42.8l.7-6.2H16.5Zm15.3-6.2.7,6.2,4-6.1Zm3.6-6.8-8.6.4.8,4.4,1.3-2.7,3,1.4ZM21.1,33.3l3-1.4,1.3,2.7.8-4.4-8.6-.4Z" fill="#cd6116" stroke="#cd6116" stroke-linecap="round" stroke-linejoin="round" stroke-width="0.06"/><path d="M17.6,29.8l3.6,7V33.3Zm18.3,3.5v3.5l3.6-7Zm-9.7-3.1-.8,4.4,1,5.2.2-6.9Zm4.6,0-.4,2.7.2,6.9,1-5.2Z" fill="#e4751f" stroke="#e4751f" stroke-linecap="round" stroke-linejoin="round" stroke-width="0.06"/><path d="M31.6,34.6l-1,5.2.7.5,4.5-3.5V33.3ZM21.1,33.3v3.5l4.5,3.5.7-.5-1-5.2Z" fill="#f6851b" stroke="#f6851b" stroke-linecap="round" stroke-linejoin="round" stroke-width="0.06"/><path d="M31.7,45V43.6l-.3-.3H25.6l-.3.3V45l-4.8-2.2,1.7,1.3,3.4,2.4h5.8l3.4-2.4,1.7-1.3Z" fill="#c0ad9e" stroke="#c0ad9e" stroke-linecap="round" stroke-linejoin="round" stroke-width="0.06"/><path d="M31.3,40.3l-.7-.5H26.4l-.7.5-.4,3.3.3-.3h5.8l.3.3Z" fill="#161616" stroke="#161616" stroke-linecap="round" stroke-linejoin="round" stroke-width="0.06"/><path d="M46.6,22.5l1.3-6.2L46,10.5,31.3,21.4,37,26.1l7.9,2.4,1.8-2.1-.8-.5,1.3-1.1-1-.8,1.2-.9ZM9.1,16.3l1.3,6.2-.8.6,1.2.9-1,.8,1.3,1.1-.8.5,1.8,2.1L20,26.1l5.7-4.7L11,10.5Z" fill="#763d16" stroke="#763d16" stroke-linecap="round" stroke-linejoin="round" stroke-width="0.06"/><path d="M44.9,28.5,37,26.1l2.4,3.7-3.6,7H47.6ZM20,26.1l-7.9,2.4L9.4,36.7H21.2l-3.6-7Zm10.8,4.1.5-8.8,2.3-6.3H23.4l2.3,6.3.5,8.8.2,2.7v6.9h4.2V32.9Z" fill="#f6851b" stroke="#f6851b" stroke-linecap="round" stroke-linejoin="round" stroke-width="0.06"/></svg>