<svg xmlns="http://www.w3.org/2000/svg" viewBox="0 0 2807.01758 1574.99701"><path d="M2644.205,1287.09125c1.8424-3.6189,4.24926-7.60254,5.92761-11.87232,1.41308-3.59619,3.93408-8.56543,2.57336-11.12182-5.1261-9.634-2.26233-18.19239,1.14478-27.11988.67956-1.78027.37756-3.9519.44592-5.9458.74268-21.61133-6.07385-41.15088-16.18164-59.85986-7.41675-13.72925-19.07092-23.83618-29.20044-35.28247-8.9342-10.09571-19.385-19.308-22.20459-33.59644-.40576-2.05664-2.26733-4.06384-3.91577-5.59973q-19.75086-18.40374-39.727-36.56335c-2.28-2.0708-5.06128-3.58936-7.61109-5.363q-.67162.81994-1.343,1.63965c2.33081,2.61377,4.63012,5.25634,6.998,7.83618a179.50947,179.50947,0,0,1,36.219,58.23169c6.87988,18.21948,12.05884,37.36914,6.33447,56.53113-4.08569,13.67651-8.04333,27.17956-10.28955,41.29626-1.33643,8.39746-4.37451,16.52417-6.81067,25.36426-8.61462,4.55981-8.75281,4.84277-15.66321,16.21094-8.98523,14.78247-17.84472,29.655-27.33716,44.10839a84.165,84.165,0,0,1-14.33251,16.46778c-6.33606,5.63281-13.89722,7.99634-22.97315,6.95654-10.207-1.16943-20.63721-.73-30.95715-.46728-8.03553.20459-9.19446,1.62744-11.65906,9.489-5.54053,17.67505-13.0304,34.17578-27.12732,47.01489-3.53064,3.21582-5.89624,7.7107-8.90955,11.7688,4.207,2.156,7.63013,3.51734,10.62989,5.51514,13.415,8.93432,13.43261,26.34814-.38013,34.56323a43.64783,43.64783,0,0,1-16.88684,5.36377c-12.76184,1.48291-23.47388-3.333-31.52991-13.32861-16.7865,8.49316-33.03564,16.83911-49.42407,24.90112-3.26855,1.60791-3.82983,4.01831-4.44678,7.0813-2.1062,10.459-7.582,19.124-15.06176,26.562-12.54126,12.47046-27.7461,19.70044-45.28028,21.0271-20.43188,1.54614-40.57373.09253-57.77685-9.802-9.00086,2.9021-16.82471,5.635-24.77686,7.92407-6.71265,1.93237-13.55481,3.43335-20.37231,4.98169-29.54248,6.70947-59.0044,13.822-88.68189,19.873-17.94031,3.65747-36.48218,6.33227-54.54065,2.36132-15.92224-3.50073-31.775-2.88525-47.70227-3.31-5.90845-.158-11.53613.36938-16.95434,4.293-4.87891,3.53321-11.05567,2.62842-16.80933-.1604a37.95679,37.95679,0,0,0-12.0271-3.65942,134.71168,134.71168,0,0,0-17.97974-.3916c-35.76464.77881-70.25854-5.51636-103.73071-18.02344-3.5542-1.32837-7.72925-1.29687-11.62378-1.34961-8.97168-.12158-18.04.96045-26.90625.01856-34.65185-3.68116-62.68017-21.13306-87.856-43.917-9.21777-8.34179-15.78955-18.1809-13.446-31.49218-7.56616-5.43311-14.29688-11.543-22.09448-15.60425a150.54736,150.54736,0,0,1-44.26465-35.27344c-3.37329-3.86841-7.7627-6.85107-10.42383-9.15039-6.15918,4.79-10.49731,9.94116-16.01123,12.13013-19.1665,7.60888-37.36792,5.90112-52.67456-9.25977-8.2439-8.16553-15.9375-16.88647-24.34473-25.85278a21.67451,21.67451,0,0,1-20.52661-6.03369c-4.25-4.24317-6.91968-9.20581-5.01782-15.30274,1.95508-6.26733,6.64209-9.87475,13.03589-11.01049,3.17822-.56421,6.45337-.582,10.759-.93555-3.05688-7.15137-5.85425-13.69507-8.65137-20.23877-.56225,8.65112-3.43212,15.34912-10.92578,19.4209-9.56933,5.19946-19.249,5.002-28.533-.61426-6.82959-4.13159-10.23974-10.6145-9.55-18.54248.68042-7.822,4.71044-13.85718,12.18359-16.97656,9.35425-3.9043,18.24512-2.59912,26.58325,2.98022,2.00317,1.34009,3.92505,2.802,7.17358,5.1333-.79858-4.61792-1.59594-7.51172-1.74877-10.43921-.43287-8.29028-1.45874-16.686-.58106-24.86108.60986-5.67725,2.59985-12.47925,6.45459-16.22485,5.25488-5.10645,5.30811-10.05225,4.61084-16.13233-.5791-5.05322-2.37671-10.25391.43872-16.01782,3.186,1.68359,5.78247,3.02148,8.34741,4.41772,8.7771,4.77784,17.44825,9.76368,26.35889,14.27661,3.67773,1.8628,6.47876,3.94458,8.67773,7.64283,2.75782,4.63745,5.91333,9.47534,12.94263,11.3479-1.22827-6.52906-2.28564-12.14771-3.21069-17.06543-18.59912-10.27149-36.60059-20.21314-55.05542-30.405.69165-6.76416.95581-13.08924,2.09009-19.2544.90649-4.92566-.47217-8.033-4.37183-11.09338-7.84912-6.16-15.23828-12.90332-22.91724-19.28552a26.25492,26.25492,0,0,0-5.83252-3.51856c-13.53076-6.207-24.13452-15.49841-29.75122-29.48364-1.62475-4.04578-4.17871-5.43506-7.79907-6.63635-12.77-4.2367-22.68017-12.41638-30.75317-22.99109a114.7147,114.7147,0,0,1-17.33081-32.49182c-5.50855-15.99158-6.88916-31.34192,7.24121-44.12171-3.21656-7.13159-6.0083-13.8927-9.27906-20.41333-3.27417-6.52783-4.87817-13.9873-10.25537-20.74048-5.383,19.97144-12.5271,37.417-27.4187,50.52942-4.28344,3.77161-2.86035,7.55384-.523,11.58533,5.33741,9.20606,5.21,19.63525,7.81568,31.60083-7.6626-4.63183-14.45874-7.2937-19.2024-12.01733-4.67114-4.65161-7.262-11.39307-10.15454-16.20179-13.72534,1.06482-26.73,2.07361-39.68579,3.07874,3.19824,8.70081,2.66162,12.6593-2.79663,15.40332-5.404,2.71655-11.04175,2.61011-16.14209-.88647-5.87988-4.031-5.94995-10.81348-.15014-14.95313a37.59987,37.59987,0,0,1,6.42358-3.19189c-6.50147-6.0813-14.4231-11.22132-19.1189-18.45569-5.90771-9.10169-14.27221-14.467-23.364-21.83142.37866,4.17993.62817,6.93457,1.09643,12.1029-5.55664-7.74621-9.73974-13.57776-14.31811-19.96008-7.4812,8.04517-16.908,10.34277-27.1189,10.72168,5.23877,12.444,4.32862,18.34363-3.19433,23.76172-8.64649,6.22717-23.32324,5.439-30.47608-2.18408a21.49427,21.49427,0,0,1-4.78515-9.52539c-1.481-6.35108,2.261-11.31751,6.60132-15.8147-11.219-10.68335-14.9148-23.39392-14.34351-37.69287.71191-17.813,11.88574-30.09351,29.478-32.18262,2.896-.34387,5.8186-.4635,9.64453-.75708-1.6189-4.09277-2.70777-7.56982-4.32447-10.78088-3.36547-6.68372-3.469-13.00623-.52124-20.10291,4.46875-10.75867,5.69678-21.87646-.80078-32.59546-.6831-1.12659-.88989-2.54443-1.58593-3.65967-4.65845-7.4646-3.49122-15.01623-1.25122-23.005,3.219-11.48157,5.70922-23.17249,8.32714-34.81531.79712-3.54578,2.02271-5.89258,6.04493-6.83789,4.37133-1.02747,8.48657-3.14416,12.53881-4.7179-2.45629-17.72644.53809-33.80285,5.335-51.38806,2.60523,3.72022,4.43213,5.98975,5.895,8.47376,9.04444,15.35534,16.76294,31.57312,29.31348,44.63061a14.48018,14.48018,0,0,1,2.28613,3.27234c8.68775,16.478,18.00708,32.66748,25.791,49.56372a92.2736,92.2736,0,0,1,8.25977,44.78467,13.50757,13.50757,0,0,0,.97851,6.74207c6.406,12.42663,12.58984,25.01306,19.82568,36.95324,6.1399,10.13086,11.19532,10.97022,23.852,5.61328-5.10668-8.89013-10.67871-17.40722-15.03369-26.50659a259.90976,259.90976,0,0,1-10.89648-27.89636c-3.26807-9.51794-8.144-18.61438-9.22192-29.09851H1283.333c3.22241,14.938,13.87158,15.65466,26.08935,13.76,3.8357-.595,7.8418-.09277,12.13282-.09277,3.04589,17.5437,12.02148,31.96716,21.48706,46.09265,14.65747,21.87365,29.52636,43.60559,44.36352,65.35791,1.15918,1.69909,2.77564,3.08618,5.40039,5.95056-.49609-2.85291-.48242-3.81409-.82983-4.61951-7.64673-17.73157-15.17212-35.51953-23.13452-53.109a33.62062,33.62062,0,0,0-7.97364-11.06311c-15.66992-13.89-29.61084-28.8634-35.62255-49.66565-.4751-1.644-2.0835-3.0913-3.44288-4.3236-3.63452-3.29444-8.14868-5.87659-11.01879-9.71106q-18.24317-24.37225-35.647-49.36939c-8.5271-12.27246-7.50927-27.08813-10.89575-40.54419,4.92163-2.10425,6.68872.74854,8.47949,3.00647,4.55347,5.74243,8.79981,11.73193,13.44092,17.4,1.563,1.90918,3.92163,4.44775,5.95508,4.48266,12.96094.22376,23.53393,6.69556,34.50976,12.23316,2.80518,1.41528,5.70264,2.648,8.55762,3.96447a347.52156,347.52156,0,0,0-32.595-35.38208c-35.64673-33.33435-56.93823-73.34289-58.86694-122.77624-.1709-4.37476-1.07739-8.721-1.64209-13.08032q-1.33081-.05878-2.66113-.11768c-8.10108,15.93481-7.01465,34.40137-13.19751,51.54492a53.11708,53.11708,0,0,1-5.98365-4.31689c-4.82275-4.53833-9.48-9.25366-14.16113-13.94068-17.03638-17.05859-30.34644-36.26684-34.87842-60.53955q-5.13135-27.48321-10.3435-54.95117a64.79635,64.79635,0,0,0-2.15845-6.39245c-4.17017,10.03027-8.58032,17.89245-10.67261,26.32971-2.94995,11.89575-4.5,24.17651-6.06128,36.36792-1.52954,11.94421-7.61914,20.05529-19.16894,22.81518a68.816,68.816,0,0,1-20.70655,1.24243c-8.66015-.63134-9.23877-.979-12.772,6.96289-2.51465,5.65259-4.69165,11.45557-7.45849,18.273-16.20386-18.82275-27.2251-39.5559-36.83936-59.01733-7.8479,1.35388-14.32031,3.75488-20.56226,3.25806-10.37622-.82593-18.68042-6.83887-21.14087-17.1543-2.80712-11.76782-3.83813-24.36353,6.98633-33.28638,6.25977-5.15991,13.7583-8.81665,21.77588-13.82226-.115-1.981-.31689-5.45313-.53174-9.147-16.801,6.103-26.90942,4.58887-33.05078-4.56347-5.47583-8.16065-5.87695-17.49414-.0437-23.02075a27.34552,27.34552,0,0,1,11.17481-5.94776c8.35742-2.33716,15.32031,1.77246,22.228,7.51416,1.52979-13.44385,2.32618-25.76636,4.436-37.85937q6.26293-35.89527,13.81616-71.55982c2.54785-11.93982,8.82275-22.22046,17.7915-30.72424,1.54639-1.46619,2.67994-3.368,4.45484-5.64734-8.59863-3.15015-12.79932-9.38232-16.21216-16.45459-2.89453-5.99792-6.26758-11.7644-9.16992-17.75854-12.17017-25.13282-17.49756-51.58619-15.293-79.5188,1.37573-17.42737,7.62207-31.641,24.6499-39.16284.53638-.23694.85108-.97583,1.75757-2.071-.44409-7.07373-1.248-14.69824-1.29517-22.32751a17.31806,17.31806,0,0,0-6.11718-13.89008,114.91678,114.91678,0,0,1-25.10523-32.16571c-11.71533-22.49683-11.71313-44.79132,2.33032-66.33185,2.6875-4.12231,3.10694-7.38745,1.20752-11.89319a90.17562,90.17562,0,0,1-7.25708-40.971c.13306-2.17419-.43213-4.39111-.69116-6.73992-2.91748-.16675-5.22119-.41321-7.5249-.41358Q831.62256.46594,649.6145.38147a17.46565,17.46565,0,0,0-13.283,5.24029c-9.30493,9.06214-18.57812,18.24182-28.62744,26.43866-30.01587,24.48358-58.24,50.71485-82.196,81.28382-11.78638,15.04-21.8982,31.21985-26.93726,49.72589-6.03418,22.16076-10.70312,44.692-16.05078,67.04187-2.08887,8.7301-3.98633,17.54016-6.70947,26.07837-11.05909,34.67627-19.70679,69.88281-24.37451,106.0188-1.31934,10.21337-2.69678,20.41931-4.04737,30.62866q-1.02759-.00477-2.05542-.00928c-.85107-11.21533-2.27173-22.42187-2.446-33.6477-.51221-32.9917-.45459-65.992-.82251-98.98658a89.01537,89.01537,0,0,0-1.8899-14.78906c-.89013-4.8938-3.07348-8.35034-8.95-8.98144a43.37283,43.37283,0,0,1-13.33423-4.03919c-7.48681-3.48352-16.38549-6.03455-21.64672-11.77087-11.7854-12.84925-18.70655-28.35242-14.88892-46.69129,5.855-28.1275,22.84229-46.72076,49.19141-57.218,3.99438-1.59119,8.10107-2.9,11.68237-4.17139C456.51221,51.4303,499.12476,19.90137,554.55469.47528H543.84424Q449.92285.4751,356.00171.475,183.494.4747,10.98608.48639C7.32422.48681,3.66211.66144,0,.75482V204.78631c1.94556,6.3003,4.37939,12.49756,5.7334,18.92261a95.57711,95.57711,0,0,0,15.27051,35.5199c4.19506,6.0022,8.33593,12.04285,12.57861,18.01135a58.94394,58.94394,0,0,0,17.32373,16.17359,66.05322,66.05322,0,0,1,17.06885,14.9331c9.40185,12.043,17.93359,24.792,26.38989,37.53833,7.11377,10.72278,8.6333,22.64856,6.86987,35.39258-3.48608,25.1958-2.83423,50.4436.32935,75.65234,1.3269,10.5752,3.10425,21.13941,3.62475,31.76026.98487,20.09692,8.562,38.2041,15.84961,56.42871,3.91553,9.79175,6.179,20.51782,14.82569,27.83972,3.01,2.54883,5.65136,5.56409,8.79956,7.91248,9.07226,6.76794,18.52588,13.04,27.40234,20.04809a21.78458,21.78458,0,0,0,13.54151,5.17407,156.73542,156.73542,0,0,1,61.69751,15.13892c31.687,14.82715,51.56591,40.40527,63.52587,72.46558,6.18384,16.57641,2.18506,31.50122-10.469,43.37695,10.66577,20.82934,22.16309,40.74853,31.23731,61.71667,9.092,21.009,15.76489,43.06519,23.91015,65.8136,2.01685.11609,5.25171.23718,8.4751.49854,16.59766,1.34582,32.16284,5.717,45.30005,16.44543,17.64355,14.40857,22.22265,34.04846,12.69018,54.71228-7.437,16.12122-18.79516,28.17163-36.4021,33.29358-1.57544.45813-3.08081,1.15808-5.582,2.11365,3.40967,6.11743,6.46533,11.90869,9.80371,17.532,10.87305,18.31567,22.34327,36.2981,32.61621,54.94177,7.11817,12.91834,15.72559,20.64466,31.36768,23.67737,21.73145,4.213,40.42041,16.87366,57.69141,30.78125,26.34716,21.21607,48.65307,46.44361,70.49414,72.08325,15.56982,18.27808,30.58911,36.94532,41.96191,58.29981,8.11084,15.23,14.67554,30.64575,12.34131,48.51147-.3186,2.43726.86987,5.07154,1.48242,8.24585-16.47339,15.75733-33.26343,31.81763-50.72754,48.52271-5.86914-3.54566-12.77173-8.21265-20.10718-12.05225-20.9375-10.959-42.00683-21.66919-63.11645-32.29443a49.66409,49.66409,0,0,0-28.21436-4.81861c-6.095.69385-11.9685,3.33106-19.42334,5.53467-10.84692-8.39868-24.81323-13.49463-39.00048-18.48291-6.59571-2.31885-11.98536-8.06909-18.33814-12.55835,1.56787-3.27759,2.8103-5.87475,4.70972-9.8457-2.81543-2.35474-5.67993-5.48853-9.19092-7.48511-3.7102-2.10986-8.32324-2.62793-12.04272-4.72607a433.8616,433.8616,0,0,0-46.27857-22.80371c-9.91064-4.13208-18.36377-11.76075-27.83935-18.06482-10.92847,9.764-23.74512,12.63952-37.93457,8.7511-13.98926-3.8335-21.45874-12.36548-22.23291-24.89429-1.01368-16.404,4.28613-25.49292,18.53125-31.80347,1.20751-.53491,2.38745-1.1322,4.39868-2.09033-2.88257-11.53589-2.87329-22.94885,5.79223-33.69263-7.31958-13.65063-14.14062-27.70483-22.17431-41.02758-10.85938-18.00892-15.42456-36.84668-9.87647-57.36329,4.94434-18.28344,13.65894-34.79907,26.86109-48.44775,4.88305-5.04846,6.60376-9.529,5.63159-16.60645-1.56568-11.40075-4.82373-22.69116-3.02295-34.55.54272-3.5752-1.73779-7.68921-3.09058-11.42383-6.68188-18.44654-13.05591-37.02124-20.353-55.22412-9.79419-24.43213-24.05665-45.91748-44.46656-62.97242-6.10107-5.09814-12.05566-10.37219-17.25122-14.85314-8.80591,2.95568-16.55908,5.55773-24.312,8.16,4.53638,1.02942,9.2207,1.64014,13.57642,3.18054,7.73291,2.73474,11.91357,8.5553,11.93994,15.50342.02685,7.01526-4.09961,12.47742-11.811,15.63489-10.96777,4.49072-25.72363-.86695-31.04907-11.27393-3.35474-6.55591-1.21655-13.676,5.887-17.91431,3.66089-2.1842,7.80323-3.56152,11.74878-5.31372-4.9497-.53857-10.154-.31433-14.83691-1.76928-7.21216-2.24073-14.79029-4.57434-20.91773-8.7638-11.6416-7.9602-13.94629-21.14453-7.28393-33.65075,1.384-2.59815,3.0271-5.05823,4.866-8.1034-6.83935-5.20935-13.41113-10.19714-19.9624-15.21228-3.1748-2.43042-6.2832-4.94775-9.46826-7.36413-19.69751-14.94287-19.11182-15.1532-27.9248-39.22351-7.15577-19.54358-11.36353-39.68457-14.77564-60.01746-1.80981-10.78442-2.05981-21.8717-2.4685-32.84265-1.196-32.12964-7.32178-63.38379-16.84717-93.95874A1052.65312,1052.65312,0,0,1,4.17969,347.60419c-.65991-3.729-2.75244-7.20435-4.17969-10.79761V1574.997c4.67188-.07031,9.34351-.20239,14.01514-.20264q621.0282-.01392,1242.05615-.00879c3,0,6.00635.11328,8.998-.04736a49.503,49.503,0,0,0,6.12866-1.21607c-5.0105-3.97045-9.3562-6.62744-12.69483-10.22021-7.44287-8.00977-15.12133-15.97607-21.3103-24.92358-5.69311-8.23047-7.28784-17.99634-2.231-27.51539,1.82471-3.43457,1.009-6.03247-.166-9.3518-2.54248-7.17993-5.85938-14.57666-6.06543-21.96265-.23364-8.37939-3.583-14.76953-7.96948-20.95654a120.3102,120.3102,0,0,0-12.87964-15.18482c-9.62989-9.67456-19.74219-18.86743-29.40235-28.51269-4.47192-4.46509-9.14355-7.61377-15.78051-6.97583-5.22144.50195-9.668-1.375-13.87256-4.52783-6.08228-4.56128-12.47974-8.70191-18.85083-13.09668-13.5979,11.49609-28.84351,12.10742-44.78174,8.96069a100.64106,100.64106,0,0,1-42.522-19.05371c-11.6001-8.98584-23.7461-17.05005-35.83643-25.28027-7.62427-5.19043-14.616-11.3108-22.457-17.45752-1.148,3.51928-2.13452,6.54248-3.50537,10.74463a258.02272,258.02272,0,0,1-32.19971-44.06031c-3.55981-6.2334-7.68457-11.56445-13.54931-15.67065-3.8169-2.67285-7.2566-5.88965-11.10279-8.51441-9.23633-6.30395-18.61255-12.40258-27.93335-18.58447-2.45386,3.26563-3.88037,5.54712-5.69092,7.46631a32.2023,32.2023,0,0,1-6.06152,5.14893c-9.00806,5.70288-15.001,5.44043-23.72266-.7334-4.08081-2.88843-8.17724-5.75464-12.24926-8.65479-6.70484-4.77539-8.32837-8.64648-4.63623-16.01416,2.279-4.54834,6.31836-8.33594,10.02954-11.99634,2.00244-1.97534,4.97754-2.9646,7.3872-4.32739-6.40454-9.39062-12.5581-18.41382-18.85522-27.647-10.012-.53735-19.7334-2.54834-27.36914-9.97559-6.99316-6.80224-14.05859-14.17358-15.76074-23.84887-1.65381-9.40113-.65064-19.26941-.79859-28.01221-6.57519,0-13.71338,1.1499-20.31714-.24024-13.58886-2.86084-21.08325-15.88122-17.26831-27.94726,3.26-10.31128,14.60791-17.244,26.98951-16.48889,12.40332.75647,21.42163,8.12707,23.52026,19.35363.52686,2.81873.71582,5.70044,1.12012,9.04981,4.26587-1.76172,7.897-3.26123,11.95874-4.93872-.6045-2.54248-1.03467-4.76026-1.66236-6.92066-2.50781-8.63317-5.34179-17.181-7.56421-25.88574-3.80249-14.89331-6.72241-29.9602-5.09594-45.46057,1.33716-12.743,6.9895-22.12292,20.49316-25.02356a19.46048,19.46048,0,0,0,3.60547-1.59228,12.36438,12.36438,0,0,0-.47314-3.14307c-16.15772-34.3877-32.43116-68.72144-48.46778-103.16528-2.22705-4.78345-5.51465-5.692-10.26806-5.82642a109.40993,109.40993,0,0,1-49.82032-12.98169c-1.96167-1.06445-4.08838-1.82544-6.29516-2.79578-9.71509,11.23145-21.50513,17.39515-35.971,17.93323a63.02982,63.02982,0,0,1-45.03613-15.98462c-4.0669-3.54467-8.07593-8.64965-9.21533-13.69482-1.53687-6.80615-2.002-14.8523.24853-21.24878,2.4939-7.08838,1.842-12.86377-.606-19.19043-1.29394-3.34485-2.56884-6.69714-3.915-10.21,3.6294-4.02637,6.92847-7.68652,10.50538-11.65479-10.4795-23.05114-20.89112-45.95214-31.39014-69.04626,11.46265-.59973,21.56714-1.12854,31.15478-1.63025.50049-1.7583.72925-2.10376.64673-2.34021-1.207-3.45081-2.356-6.92688-3.7102-10.32031-10.30225-25.817-15.44141-52.48218-11.46729-80.20886,2.07276-14.46131,5.53711-28.74268,8.8501-42.99439.99145-4.265.74048-7.54187-1.69165-11.209q-18.77711-28.31288-37.13867-56.89942c-2.14478-3.33679-4.57935-4.301-8.33252-3.64721-4.17993.728-5.552,3.52832-5.55689,7.08471a29.16343,29.16343,0,0,0,1.21656,9.82715c1.59472,4.39307-.25171,6.77832-4.09913,8.61572,4.052,7.26026,6.509,14.38477,4.83985,22.377-.24683,1.18261.57178,2.56274.78223,3.87011,1.3247,8.22852-1.718,14.35376-8.98169,18.16065-9.32325,4.88623-21.0835,2.89624-29.50831-5.09912-6.99609-6.63965-13.91772-13.35791-20.856-20.05811a51.5872,51.5872,0,0,1-15.35132-27.47021,51.52538,51.52538,0,0,0-3.52075-11.15454c-3.7461-8.21387-2.63819-15.72132,3.05713-22.36939,15.37329-17.94446,44.14038-11.24756,49.12548,5.77954a21.216,21.216,0,0,0,2.12207,3.947q.99316-.35156,1.98609-.70337c-2.38013-10.40759-4.76-20.81506-7.08936-31-27.64965.84913-48.96582-12.73632-53.39526-33.83569-2.48242-11.82507.27026-23.33472,5.3457-33.99487,7.739-16.25574,22.71411-22.41944,39.46973-25.55322.37549-10.66724.37207-20.66468,1.16406-30.59852,1.05908-13.28088,1.45728-26.82275,4.57544-39.66076,2.24341-9.23584,3.09986-18.53382,4.80054-27.759.58765-3.18786,1.19531-6.70678.44873-9.74377-2.35767-9.5885.01489-17.70129,6.03857-25.19617,3.89991-4.85254,8.186-9.59057,11.05078-15.03686a106.74635,106.74635,0,0,1,20.03272-27.24195c1.74365-1.69458,3.92212-2.9414,7.25073-5.38647-.67993,5.40088-1.21606,8.99695-1.57373,12.61072-1.968,19.88733-4.30224,39.75012-5.70386,59.6781-1.14477,16.27441-1.39038,32.6261-1.53833,48.948-.04712,5.20569,1.2168,10.49389,2.46509,15.60156.42749,1.74951,2.63819,3.063,4.03418,4.57568,1.24365-3.98657.71167-7.16552.42505-10.36645-.67993-7.59156-2.11255-15.24292-1.68359-22.7815,1.08276-19.0249,11.83642-32.90869,26.12182-44.21948,9.68116-7.66553,14.63819-18.85986,22.29419-28.01025,1.06323-1.27088.92725-3.83887.79346-5.76795-.61987-8.93347-.85083-17.94983-2.30347-26.75793-2.8999-17.58484-.12451-33.32117,13.43262-45.801,13.70459-12.61584,27.77734-24.83075,41.59375-37.32641,2.15942-1.95295,4.42017-4.18555,5.60693-6.762,11.89209-25.82007,30.64258-45.80359,52.91846-62.833,1.92041-1.46827,4.08252-2.62031,8.25317-5.26282-14.271,31.27545-4.6687,57.92608,7.27564,84.37256,2.71582.5368,4.99292.95819,7.25732,1.43884,21.69825,4.60571,36.95752,17.23279,47.03174,36.86883,5.76343,11.23426,8.09375,21.90381-1.32568,32.08057,1.77685,4.18982,3.82324,7.7323,4.78247,11.54822,1.92114,7.64184,6.90283,12.19971,13.10937,16.65259a179.13805,179.13805,0,0,1,53.94947,60.82226c14.458,26.74488,14.8789,53.35559-1.59961,79.56812-.25659.408.09692,1.1997.2417,2.48779,6.7124,2.41724,13.39184.54346,19.874-.75879a8.70894,8.70894,0,0,0,1.22876-2.0199c3.14624-13.97082,5.92847-28.03112,12.59033-40.95153.96924-1.87964.887-4.53638.65235-6.76636-2.782-26.4563-5.92554-52.87744-8.40381-79.36121-.70044-7.48755-3.17554-12.11975-9.6543-16.77063-20.41138-14.65259-16.82056-41.7749,6.15845-52.00573,2.35986-1.05066,4.74756-2.03943,7.00634-3.00721,1.02124-30.85443,10.41138-58.63488,24.04126-85.27356.27271,4.03974-.94946,7.8537-1.05395,11.698-.16943,6.23761-.56543,12.71973.83545,18.70014,3.55688,15.1853,8.03418,30.15588,12.19507,45.198,1.06079,3.83509,1.91162,7.80286,3.56323,11.38477,3.61816,7.84729,7.99048,15.3512,11.5083,23.23926,6.93018,15.53894,13.27515,31.15124,11.13989,48.95935-.94287,7.86328.27832,15.97082.29834,23.968.0376,15.11328-.08276,30.2268-.13769,45.34033q-1.25721.09411-2.51441.18811-6.14647-39.48414-12.29321-78.96814c-1.27466,5.78979-1.26538,11.42468-1.27612,17.05957-.04908,25.30981.54248,50.64294-.3667,75.92187-.69043,19.1836-5.58252,37.5503-17.23731,53.46387-4.28564,5.8512-8.42358,11.81787-12.91015,17.51038-1.58887,2.01574-3.772,4.19836-6.1001,4.87744-7.29077,2.12659-8.77515,6.70874-7.88574,13.65466,1.165,9.09741,1.4707,18.30493,2.27758,29.24878-3.16137-2.13721-4.83105-3.03857-6.23168-4.25073-7.30176-6.3197-14.59815-12.64868-21.769-19.11572-4.34619-3.91968-8.94385-5.6521-15.11377-5.88086a223.52765,223.52765,0,0,1-36.59717-4.02661c-23.93408-4.91822-44.47558-17.49256-64.27856-31.19214-2.22046-1.536-3.37964-4.77075-4.72363-7.37622-3.0437-5.89966-5.27173-12.32178-8.96314-17.76343a110.72,110.72,0,0,1-14.499-30.54675c-3.45557-11.4751-7.1001-22.89466-10.81177-34.2898-.63159-1.93909-2.01587-3.63269-4.27661-7.57361-5.69531,28.57837-9.76611,54.72632-5.47632,81.48255a17.13481,17.13481,0,0,0,2.1648,5.4674c7.17016,12.75244,14.583,25.37232,21.51953,38.24927,1.43555,2.66492,2.34472,6.594,1.48926,9.30725-1.75049,5.55066.86132,8.63538,4.13623,12.23255,12.34033,13.55334,24.48462,27.28515,36.657,40.99023.58032.65332.72754,1.69116,1.33887,3.19556-3.13013.5133-5.81641.95385-9.22266,1.51257-.51294,9.50134-1.00073,18.44251-1.47705,27.38416-.63452,11.90722-7.28711,20.03881-18.803,22.77551a41.11246,41.11246,0,0,1-28.21973-3.23108c-3.58984-1.74658-6.9768-5.11694-10.59277-5.32031-5.40137-.30384-7.14087-3.79737-9.65332-7.11524-12.7417-16.82617-25.51562-33.628-38.83154-51.167.40551,2.9502.37475,5.30859,1.08081,7.42041,3.16528,9.46631,5.779,19.21753,9.97632,28.22046,15.176,32.55078,28.02246,66.31128,49.08935,95.87939,3.449,4.84082,5.56445,10.61158,8.60156,15.77295a72.15467,72.15467,0,0,0,7.85083,11.46314c9.29444,10.46582,18.8733,20.68042,28.42212,30.91748,1.42334,1.52575,3.28077,2.64648,6.345,5.066.60108-9.55725,1.08277-17.40967,1.59253-25.26038.3877-5.96679.20264-12.04931,1.3335-17.87427,3.27661-16.8767,17.3-27.57031,34.51465-27.12475,11.16821.28906,20.57495,4.94385,29.37939,11.28808,2.5315,1.824,5.114,3.57691,8.03833,5.61719,2.34644-6.30591,4.3-11.55652,6.615-17.77856,6.09741,5.22046,11.74707,9.64087,15.42163,16.15,4.58619,8.124,9.49854,16.06946,13.90137,24.28955A39.72841,39.72841,0,0,0,918.981,662.66571a103.70087,103.70087,0,0,1,31.54052,34.33984c19.23047,33.14258,32.88379,68.38,39.18311,106.30005.28223,1.69934-.12915,3.51392-.2666,6.25928-3.61109-1.895-6.14282-3.44861-8.8457-4.60034-8.5525-3.64478-18.17066-5.76221-25.48-11.07862-7.33081-5.33227-12.12548-14.04065-18.5144-20.814-5.38061-5.70459-11.50879-10.67346-19.36133-13.84046,1.00293,8.75452.88013,8.91773,5.543,12.42444,24.17505,18.1814,39.01978,42.12036,46.23633,71.48365,5.47778,22.28906,12.70093,44.14392,18.762,66.29748,2.00488,7.32849,2.68823,15.01038,4.22632,22.47913.50928,2.47192,1.28174,5.20666,2.82056,7.10058q21.29993,26.21522,42.9729,52.12659c8.77392,10.44031,17.67285,20.80261,27.00537,30.74023,15.48755,16.49158,30.10278,33.79285,47.65893,48.34388,14.86792,12.32312,28.78394,25.79846,43.05176,38.8396,2.8374,2.5935,5.36109,5.53,8.85474,9.16784-5.65967.64234-9.66065,1.09632-14.25537,1.61768,3.71216,9.527,5.22827,18.20544,2.38989,27.29016-5.10156,16.33032-16.34326,26.39917-32.18677,31.53442a72.55486,72.55486,0,0,1-42.43847.691c-38.69263-10.86731-70.43946-32.61889-95.75391-63.70483a48.96935,48.96935,0,0,1-7.70337-13.911c-1.92041-5.23779-4.18652-11.24487-3.314-16.41126,1.4873-8.808-1.74317-15.49914-5.77808-22.42956-3.01758-5.18286-6.17578-10.30811-8.79566-15.69068-2.574-5.28808-6.35668-9.0664-11.17236-12.38476-21.321-14.69092-40.07324-32.01648-54.03857-54.10767a61.17228,61.17228,0,0,0-5.551-7.06433,157.041,157.041,0,0,1-33.79516-66.11365c-5.79981-23.58752-11.8772-47.10669-17.898-70.6394-.64087-2.50537-1.72022-4.89893-2.59619-7.34424q-1.07154.2417-2.14356.48352c-.56226,20.95935-1.21631,41.91724-1.59033,62.88a29.48845,29.48845,0,0,0,1.86352,9.71655q10.5769,31.21674,21.48145,62.32214c1.08081,3.08777,2.32544,6.36011,4.36328,8.83008a57.53529,57.53529,0,0,1,13.42651,40.79407c-.24267,4.97156,1.35889,8.82226,4.2356,12.8374q16.29675,22.74555,31.87231,46.00366a35.82026,35.82026,0,0,0,11.17725,11.0437,253.53182,253.53182,0,0,1,53.792,44.46778c30.86133,33.62744,53.78736,71.93359,66.69068,115.94531,1.22241,4.17041,2.512,7.87842,6.89526,10.31665a596.75516,596.75516,0,0,1,76.87158,50.334c3.20874,2.49829,6.6272,4.28076,10.73389,3.17236,3.4314-10.8689,5.68286-14.45654,11.49072-18.52344,16.15283-11.31128,42.113-7.52148,54.24512,7.91919,7.39673,9.41357,6.93774,21.27612-1.29517,30.01953-2.19922,2.3357-4.7268,4.36206-6.55468,6.02979,13.80322,12.209,27.81567,23.45044,40.43432,36.084,13.03418,13.04956,22.20532,28.98853,28.43115,46.92774,16.66065-.46827,27.01368,8.1892,32.99292,22.85034,4.38013,10.74,1.19556,18.19751-9.42871,22.42383-2.07177.82421-4.209,1.48339-7.02319,2.46533a141.265,141.265,0,0,0,23.38281,35.15185c2.144,2.40552,6.261,3.69971,9.66895,4.23365,47.904,7.50781,88.85595,27.261,119.07031,66.48461,1.55322,2.01709,4.7251,3.23365,7.36914,3.84229,2.85034.65625,5.96631.1626,8.96631.1626q518.52393.00074,1037.04712-.01123c11.23926-.00025,22.67541,1.25537,33.11584-4.63672.42444-.2395,1.21326.16626,1.83069.27344.33081,1.20019.45435,3.32617,1.02686,3.45507a43.48954,43.48954,0,0,0,19.18359.0376c-4.43091-19.5708-5.54858-38.22973,2.62622-56.46631,8.62244-19.23535,24.40479-29.08154,43.59595-32.90674,1.67334-14.2727,2.45508-27.62353,4.91064-40.65917,8.02515-42.60108,31.55-71.90137,74.23975-84.10035,8.13013-2.32324,9.78662-4.31958,10.0437-12.44629.33618-10.63086-2.97351-20.407-8.04236-29.50927C2656.83057,1307.67254,2650.63013,1297.83783,2644.205,1287.09125ZM395.429,77.34619c7.72387-4.38434,15.99438-4.31122,24.13745-1.36981,6.30322,2.27679,11.5437,6.4461,11.30932,13.67016-.23193,7.149-2.76855,13.89923-10.24048,16.95887-3.32153,1.3601-6.95361,1.96252-10.44482,2.90881-6.76685-.40778-12.69043-2.28467-17.56079-6.813C384.4585,95.10425,385.752,82.83917,395.429,77.34619ZM390.7373,118.5296c5.39136-.1712,9.48462,2.5473,9.72046,6.45587.23706,3.9306-3.74926,7.26953-8.9104,7.463-5.01611.18805-9.41748-2.81976-9.70874-6.63482C381.53076,121.7832,385.29443,118.70239,390.7373,118.5296Zm74.77149,416.62817c-4.6001,3.28955-10.55957,4.67786-16.438,7.14112-5.59985-2.49219-11.18188-3.94861-15.49463-7.12757-7.15063-5.27075-6.896-13.5852-.35376-19.6344,8.0232-7.41857,23.77417-7.78,32.20874-.73889C472.427,520.63788,472.89844,529.87323,465.50879,535.15777Zm-115.03638,742.6178c-8.501,4.12354-18.20166,5.77344-27.35864,8.54468-8.30762-1.1416-15.79834-2.9834-22.085-7.64844a152.23755,152.23755,0,0,1-18.84277-16.22632c-5.34229-5.52929-7.19288-12.27148-4.20362-20.22412,7.59717-20.21191,21.88623-28.54394,43.66553-24.43969,11.95361,2.25268,22.86963,7.52856,32.59131,14.51709C370.62231,1244.07635,368.64771,1268.95941,350.47241,1277.77557Zm546.48926,3.21338a55.25417,55.25417,0,0,1,5.5061-.96338c2.02564.58643,4.72388.95972,7.03028,2.115,5.81054,2.91138,7.85107,9.001,5.08789,14.16455a11.143,11.143,0,0,1-15.96045,4.48047,20.74825,20.74825,0,0,1-4.76782-3.55493c-2.04322-2.32617-5.19165-4.99853-5.18775-7.52051C888.677,1285.10052,892.49316,1282.27362,896.96167,1280.989ZM703.38843,1069.76373q3.19409,3.36567,6.38843,6.73132-.77124.71522-1.542,1.43067l-6.293-6.8313Q702.66516,1070.429,703.38843,1069.76373Zm424.81665-368.34241c4.60547-8.64038,6.62353-17.106,5.46582-26.60278a40.15193,40.15193,0,0,1-.02735-4.82861q.87086.03845,1.742.07715c1.14551,4.04419,2.291,8.08825,3.53638,12.48559,3.0559-1.42041,5.66552-2.63318,9.13769-4.24707a38.00814,38.00814,0,0,0,3.573,19.198c3.62646,8.26343,4.5769,17.97143-1.49585,26.65576-2.23413,3.19434-3.42822,7.116-5.478,11.52612-10.02148-1.40039-19.71973-.59191-27.09155,11.27747C1117.812,729.0849,1121.18066,714.59857,1128.20508,701.42132Zm-31.864,183.29456c.73121-11.29553,12.0608-19.45374,25.48072-18.16467a26.01791,26.01791,0,0,1,7.67871,1.89966c8.96387,3.85229,14.321,13.92541,12.34033,22.72277-1.88916,8.39075-10.9248,14.64588-21.38477,14.80408C1106.95923,906.18194,1095.59985,896.16669,1096.34106,884.71588Zm128.77173,458.03552c-7.76611.18335-14.51562-5.14331-14.76709-11.65332-.25879-6.696,5.95044-12.19555,13.95948-12.3645,7.9663-.16772,14.51269,4.94751,14.802,11.56592C1239.39331,1336.84613,1232.96484,1342.5661,1225.11279,1342.7514Zm47.73975-279.52038c11.27026,1.14758,12.11914,8.77917,12.92578,16.0747C1281.79468,1074.35162,1277.811,1069.39764,1272.85254,1063.231Zm65.04321,50.136c-8.98462-2.14416-8.23193-9.67041-10.59326-15.02356C1333.7002,1100.50848,1339.05273,1103.4765,1337.89575,1113.367Zm1049.56507,374.30017c-6.6615,6.3462-15.02759,8.17749-23.77552,8.70752-8.188-.51318-15.93542-2.14062-22.44262-7.41211-10.51294-8.5166-10.824-22.12133-.76807-31.17944,11.74976-10.584,34.12817-10.94556,46.31726-.74853C2396.5907,1465.23212,2396.92322,1478.65277,2387.46082,1487.66717Zm221.85546-159.4873a5.36822,5.36822,0,0,1-2.537-2.00195c-.16382-.24659,1.15991-2.07935,1.57959-2.00074,1.00744.18872,1.88342,1.07984,3.23291,1.96216C2610.50659,1327.14886,2609.68469,1328.30951,2609.31628,1328.17987Z"/><path d="M2110.15381,1100.89178c.0116-.06628.01953-.13086.03076-.197-.0708.0105-.13342.02588-.206.035Z"/><path d="M2785.907,340.64752c.99121-15.88928,10.59693-26.76978,21.1106-37.39148-1.51367-4.14209-2.54346-8.05225-4.3689-11.54663a14.97875,14.97875,0,0,0-5.28174-5.31982c-9.27636-5.80152-19.34326-10.52564-27.97229-17.14209-32.30188-24.76783-59.12512-54.71668-81.07141-88.98023-12.041-18.79895-24.03393-37.63983-35.5094-56.78509a295.56454,295.56454,0,0,1-16.51867-31.87354c-5.22828-11.76636-7.29822-24.31213-3.991-37.09241,1.17566-4.54272.11255-7.506-3.36707-10.43493-14.26562-12.00751-28.49536-24.06348-42.495-36.37812-6.08923-5.3562-12.58106-7.41992-20.82385-7.39941Q2408.7154.69415,2251.81042.475q-341.47119-.00009-682.9425,0h-13.936c7.50611,34.50745,14.69068,67.53565,21.87232,100.55121-15.43066,3.504-20.44849,5.67023-26.34766,13.23963-9.937,12.75116-16.24926,27.54083-20.95166,42.788-3.43432,11.13526.08106,16.49579,11.50782,18.83051,10.14648,2.07324,15.9414,8.22424,18.82275,17.229,3.44043,10.75159,6.10156,21.77087,8.69824,32.76917a45.50223,45.50223,0,0,1-4.12256,32.96179,39.3565,39.3565,0,0,0-1.79321,4.65393c5.72632,3.34863,11.37891,6.21,16.55591,9.7644,15.45483,10.61157,27.94189,23.657,33.2666,42.31153,4.38477,15.36291,1.61035,28.96069-9.67725,40.564-1.82177,1.8728-3.56665,3.82007-5.61523,6.02112,4.92578,11.68811,13.41016,21.84875,11.69482,35.556q1.05139.31659,2.10279.6333c4.42724-4.13232,8.85473-8.26465,12.176-11.36475-2.98413-10.1809-6.65527-18.60327-7.77685-27.35254-2.65235-20.68847,1.44531-39.5249,24.28051-49.77355,2.06031-15.31873,14.49512-15.79114,25.898-17.13318,4.23413-30.04163-7.24585-44.93775-30.18286-52.47632-4.375-1.438-9.0542-1.99024-13.62085-2.79151-3.53979-.621-7.12329-.99292-11.61157-1.60058,0-6.79321-1.02417-13.23584.19287-19.2229,3.56568-17.53894,10.99707-32.74365,28.80176-40.32788,5.85815-2.49543,9.2876-6.52222,10.7373-13.16565,2.04932-9.39057,4.51734-18.91449,8.47828-27.62055,11.8125-25.9638,31.40356-42.98181,60.31616-46.61163,8.49951-1.06714,14.90893-3.70074,20.98193-9.46674,13.28662-12.61523,28.47925-22.76373,44.93848-33.61071.58545,11.18054,1.83154,20.99,7.35791,29.5874a5.4051,5.4051,0,0,1,.41382,2.94159c-.2605,6.52154,4.00122,10.46356,8.43432,13.96484,9.50318,7.50519,11.64185,16.179,5.90821,26.70252-1.58814,2.91485-3.74488,5.51709-5.37378,8.413-2.9939,5.32184-3.10694,10.86768.12085,16.05389a100.2787,100.2787,0,0,0,9.81005,13.69733,30.65855,30.65855,0,0,0,9.97217,7.71906c5.7168,2.53991,11.89307,4.139,17.98047,5.732,12.34131,3.22949,24.15772,7.72052,34.73584,14.87433a63.23971,63.23971,0,0,1,12.71875,11.119c9.457,11.11426,9.56519,24.07385.87622,35.73572-1.97192,2.64624-4.21826,5.08789-6.59448,7.93017,5.08374,9.45618,9.69385,19.0813,15.31323,28.07569,3.17236,5.07763,8.68921,8.93017,15.02515,7.12512,10.12012-2.88318,18.99145-.26526,27.99316,3.77637,10.01807,4.49792,15.55322,12.00427,15.39673,23.47448,3.65161-.9591,6.19165-2.18738,8.72656-2.17737,5.58692.02186,11.3678-.10534,16.70911,1.24939,7.20886,1.82837,11.6427,7.90186,11.45544,13.51258-.188,5.635-4.863,11.29944-12.0603,13.08679-4.3988,1.09228-9.16223.79175-13.76758.94214a69.90542,69.90542,0,0,1-7.10132-.54468c2.00025,3.68945,3.4292,6.29053,4.82593,8.90869a87.73,87.73,0,0,1,9.90857,31.25855c1.86609,15.96008-.07141,30.74279-15.5216,40.91064,2.87475,7.91638,5.85327,15.62695,8.43188,23.469.99341,3.02111,2.38586,6.88378,1.33325,9.42529-3.33911,8.06189-.21972,14.43286,4.18091,20.41443,4.72339,6.42,9.971,12.47827,15.27173,18.444a144.63456,144.63456,0,0,1,20.4458,28.98376c-11.99048,4.50672-11.99048,4.50672-14.353,10.23865,5.18042,10.31836,9.60987,20.38721,15.13379,29.81445,6.35816,10.85034,8.116,22.473,7.57129,34.57837-.41309,9.18762-1.93311,18.34668,2.54492,26.95422-5.76269,3.95154-10.573,7.5033-15.63525,10.64893a17.27848,17.27848,0,0,0-8.39966,12.92322c-1.80823,13.44861-7.65479,24.66968-17.92163,33.524-3.98145,3.43347-5.29028,6.53515-2.61426,12.04895a37.13824,37.13824,0,0,1,3.521,17.33789c-.30738,6.418.87817,11.96118,4.2561,17.02026,9.06592,13.57886,13.05933,29.10339,17.01294,44.54224,3.01843,11.78711,2.974,23.587-3.61841,34.73486-1.16186,1.9646-.16687,5.68164.73072,8.27881,1.43969,4.16589,3.62988,8.07251,5.50268,12.08862q-.80054.51326-1.60132,1.02637c-5.45166-3.42139-10.90332-6.84253-17.26391-10.83447-.594,6.76562,1.61157,11.09826,4.11621,15.40332,6.521,11.20764,13.453,22.21191,19.32641,33.75268,8.99,17.6648,13.33606,35.76636-.407,53.31909-3.43945,4.39283-7.82934,8.04615-11.82495,11.99634-1.81445,1.79395-3.73254,3.48291-5.684,5.29419.91736,1.80347,1.26892,3.18372,2.12707,4.07861,12.22815,12.75171,19.62427,28.33765,26.289,44.38147,5.13342,12.35791,6.87365,24.91761,3.19067,38.04029a86.01028,86.01028,0,0,0-1.75305,10.35571c13.12988,7.85645,25.04785,15.05835,37.05761,22.10364,1.96875,1.155,4.43921,1.42236,6.51026,2.441,10.11084,4.97375,20.7279,9.20007,30.10608,15.316,13.61352,8.87768,21.72925,21.32666,18.78259,38.65112,4.796-.70239,5.42029-4.01672,4.41235-7.90552-1.75146-6.75634-4.06945-13.37426-5.62548-20.17041-1.17237-5.12109-2.66956-10.60669-1.89869-15.60229a16.34048,16.34048,0,0,0-1.90747-11.2533c-4.04724-7.36242-8.2572-13.42822-17.74023-15.74572-11.88306-2.90357-14.3064-11.90174-8.46338-23.31665a13.71341,13.71341,0,0,0,1.56372-6.52588,168.67434,168.67434,0,0,0-1.59473-16.87305c-1.8551-12.75122-6.66418-25.13989-4.386-38.38745a70.74448,70.74448,0,0,0,1.28515-11.8656c.00757-23.8003,8.20752-45.07471,20.79261-64.65125,7.35974-11.44848,6.30261-21.9082-.31348-32.6499-2.43616-3.95532-6.33167-7.16455-8.13-11.33191-5.698-13.20349-13.89405-24.64978-23.02857-35.56775-3.71509-4.44031-3.21277-8.87256-.21-13.739,4.59521-7.4469,9.74512-14.22583,16.78772-19.58667,2.58948-1.97107,6.27429-3.5957,6.41418-7.98133a20.44914,20.44914,0,0,0-3.35278-.63757c-11.04053-.03638-17.7782-5.60864-21.923-15.68286-3.92151-9.53223-8.976-18.5918-13.18958-28.01245-3.11963-6.97412-6.61719-13.99365-8.21142-21.36792-1.27723-5.90845-1.73853-13.20056.644-18.41248,3.64746-7.97766,9.94311-14.777,15.33-21.91394,3.20666-4.24865,7.1925-7.94445,10.10229-12.36621,1.45325-2.20825,2.44714-5.91357,1.6156-8.20337a92.379,92.379,0,0,0-8.93164-18.811,114.52314,114.52314,0,0,0-14.399-17.68079c-14.72741-14.98315-7.76855-44.97717,9.07215-52.60058,7.08117-3.20545,13.60644-7.63941,21.44091-12.119-3.82116-2.86914-6.64892-5.09082-9.57653-7.17139-7.86756-5.5907-15.83509-11.04272-23.65882-16.6936-12.27075-8.86292-13.23584-12.54822-8.335-26.99732a37.95235,37.95235,0,0,0,2.02881-17.49353c-5.97766-46.79114-7.81519-93.62744.20386-140.42981,1.34875-7.87133-4.97876-18.20459-11.86377-22.07422-8.35852-4.69751-16.90259-9.5083-24.103-15.73193a194.55635,194.55635,0,0,1-39.39233-47.55041c-7.76123-12.93689-13.55176-26.714-15.938-41.73548-.12647-.7959.4685-1.70654.77441-2.71826,2.6919.73914,5.06934,1.39185,7.76319,2.13135,4.05712-14.51874,14.83227-19.575,27.73632-21.633,9.79395-1.562,19.273.12824,28.44532,3.58747,19.708,7.43255,36.01977,19.94812,51.051,34.35839,2.02222,1.9386,4.19043,3.72474,7.19068,6.37635,1.46484-4.00623,2.24658-6.84082,3.49963-9.44873,4.96265-10.32911,3.94373-23.18494,13.40173-31.65168a4.95672,4.95672,0,0,0,1.15467-3.7052c-1.27454-12.736,4.34692-23.49548,10.51355-33.68695,7.7207-12.76049,16.44018-24.931,25.03588-37.13989,3.025-4.29651,7.50843-5.672,13.10975-5.52954,9.61572.24445,19.2705-.55237,28.89209-1.17621,8.33459-.5404,14.75805-3.52594,16.21765-13.05286.84131-5.49237,4.51635-7.514,10.17505-6.9776,9.04638.85761,18.11645,1.9397,25.75463,7.05292,5.68982,3.80884,11.8003,4.66236,18.05713,4.49976,8.96216-.23279,17.89087-1.54242,26.85364-2.02045a51.87205,51.87205,0,0,1,12.56384.79334c5.3335,1.03881,10.29273,1.74859,15.41016-1.12616,19.53809-10.97486,40.76343-12.70307,62.11426-8.61072,45.01526,8.62817,82.18408,31.89,113.73022,64.47558,9.9187,10.24537,15.7229,23.07892,18.85388,36.98426,1.24134,5.51233,2.67029,11.14215,2.72522,16.731.146,14.86767,7.926,24.65429,18.06324,34.84643a180.93388,180.93388,0,0,0,47.13244,34.1637c31.27942,15.9386,60.21546,35.68689,84.28015,61.71252,14.47242,15.65161,25.27759,33.45142,30.09058,54.49146,4.68384,20.47583,3.82617,41.02856.85107,61.618-.50561,3.49853-.70361,7.04162-1.04028,10.531,4.69385,1.74207,8.512,2.92322,12.13574,4.54041,36.54615,16.31006,61.12281,42.613,70.47412,82.47095,3.40137,14.49658,9.14209,28.44507,13.87842,42.62268.1167.34875.977.44909,1.50843.67322.51489-.37964,1.278-.64771,1.51647-1.15992,11.43921-24.55322,20.88721-49.81714,24.60328-76.77539,3.95007-28.65808,2.0581-57.16-4.29786-85.36706-2.33557-10.36524.43653-17.15369,9.46094-22.90222,2.13062-1.35718,4.332-2.60328,6.92774-4.15577C2792.33716,368.12274,2784.93457,356.2348,2785.907,340.64752ZM2489.02234,73.04034q.58905-.87689,1.17761-1.75384c10.91846,6.70636,21.94824,13.24695,30.84546,22.963Q2505.03393,83.645,2489.02234,73.04034Z"/><path d="M2346.71509,1188.35565c-4.72583,1.936-8.37952,6.489-13.2096,10.4801.08057-11.20984,9.27808-18.79626,9.3-30.27136-13.68115,6.5542-26.847,10.66162-41.18982,10.47107-14.19409-.1886-26.88452-4.82239-38.58545-12.51074v26.66174c3.66089.595,7.2948,1.01025,10.84839,1.79224,18.64014,4.10241,31.01721,22.68188,24.3042,39.9917-4.6228,11.91967-9.34643,23.73437-12.95422,36.00341-.457,1.55469-1.91712,2.82569-2.32166,4.38184a21.138,21.138,0,0,0-.72558,6.65039c.57055,8.26074,1.54687,16.49536,2.04492,24.75928.57678,9.57641-4.00037,16.70068-11.75171,21.74219a58.84082,58.84082,0,0,1-12.47022,6.21191c-5.35009,1.87524-9.28833,4.96-11.79516,9.97534-3.3794,6.761-8.59961,11.70654-14.97583,15.65235-3.65357,2.26147-7.02735,4.97509-11.01819,7.83764-16.86975-5.49072-29.29272,4.06421-41.5387,14.34326a133.48148,133.48148,0,0,0,20.0669-4.11889c4.27148-1.26075,7.08191-.45191,9.00561,3.70874-3.07666,4.92236-6.18408,9.894-9.56787,15.3081,9.61011,6.8479,12.58338,16.64649,14.21143,27.30371,9.46387,0,18.152-.57055,26.72864.16236,8.34777.71338,13.17663-2.30249,17.69665-9.40723,20.9585-32.94287,44.38941-64.07153,71.47827-92.28369,4.78882-4.98706,8.16419-9.70532,8.07117-17.19458a28.49911,28.49911,0,0,1,10.19311-22.08252c6.75354-5.773,14.02173-11.59644,22.07239-15.04492,11.84534-5.074,24.59082-8.04053,36.93872-11.94922a88.2677,88.2677,0,0,0,11.23047-3.87744q15.338-7.2616,30.41089-15.07788c3.65088-1.895,6.92139-4.52246,10.49231-6.90015-11.765-19.80395-15.26624-40.28516-15.48425-61.55676-.13648-13.32471-.1272-26.6532-.48365-39.9718-.13232-4.95069-.25756-10.17994-1.86059-14.76673-9.32422-26.68152-9.89575-54.16369-8.56567-81.92639.50976-10.63867.46582-21.30823.46606-31.96362.00024-2.31128-.89282-4.62281-1.37451-6.93408a207.98375,207.98375,0,0,0-16.36829,32.4646,15.0357,15.0357,0,0,0-.10815,9.38452c3.67419,11.93383,1.89563,23.03149-4.03015,33.70605-2.21656,3.99255-4.56348,7.9126-6.96607,12.06372,2.31128,1.34155,4.06738,2.26892,5.72962,3.3418,6.64318,4.28808,11.02356,10.01074,9.34362,18.29394-1.54345,7.61182-7.63525,10.46534-14.57739,11.65589-6.80566,1.16711-13.65857,2.05969-19.99243,2.9989-7.053,23.0581-14.04443,45.91333-21.02856,68.74634C2357.113,1187.19183,2351.37085,1186.44806,2346.71509,1188.35565Zm48.13476-57.8938c.57984-5.59131,4.35376-8.8667,9.311-10.56348a21.84823,21.84823,0,0,1,17.375.84595c4.08777,2.04431,7.03931,5.0249,7.1167,9.91663.07763,4.90942-2.72937,8.13672-6.8938,10.004-2.95508,1.32544-6.24036,1.91369-9.09815,2.74878-3.06909-.57886-5.746-.7854-8.21752-1.60926C2398.52612,1139.832,2394.37964,1134.9931,2394.84985,1130.46185Z"/><path d="M2156.876,488.92621a17.61906,17.61906,0,0,0,.31762,3.67285c11.44568,31.92236,16.9928,64.991,19.22876,98.70361a31.14232,31.14232,0,0,0,6.66394,17.29541c12.996,17.16358,19.99561,36.44666,18.61853,58.62256,1.95581.673,3.83789,1.24609,5.66468,1.96082,16.0592,6.28259,30.2926,15.29382,41.60363,28.46789,9.94068,11.57788,9.78785,21.24146-.15307,32.51123a11.06571,11.06571,0,0,0-1.072,2.34912c6.15649,10.24683,12.42212,20.83655,18.84546,31.32971,10.58886,17.29822,21.15234,34.61414,31.99511,51.75281,3.84644,6.07935,3.59961,11.03-.20434,17.32788-4.40186,7.28809-8.54676,15.37122-10.10449,23.61914-4.94336,26.17383-4.64185,52.30738,5.27417,77.60694.781,1.993,2.082,3.78235,4.00292,7.19873,1.15235-15.52039.491-29.14893,3.51612-41.90308,4.198-17.70032,11.1228-34.75781,16.99536-52.05151a20.28074,20.28074,0,0,1,3.33935-6.10523c3.02625-3.74853,3.27906-7.55078,1.94117-12.09875a332.82628,332.82628,0,0,0-34.8584-79.235c-5.65259-9.30029-7.26685-17.51782-1.835-26.94262.82348-1.429,1.21679-3.1034,2.02-4.54688,2.04516-3.67529,1.27575-6.75806-1.09082-10.12524-10.31714-14.6803-18.34375-30.46338-25.41162-47.07166-15.89295-37.34509-24.70459-75.856-24.34253-116.44739.03759-4.23242.00512-8.46569.00512-13.60424-15.25866,1.42358-12.10449,16.52661-20.21032,24.13977-1.54847-8.30432-3.04969-15.30335-4.10218-22.36914-.71569-4.80176-3.15429-7.28748-7.616-9.27552a145.53569,145.53569,0,0,1-44.09619-30.57251C2160.46313,491.78265,2158.90125,490.64215,2156.876,488.92621Z"/><path d="M1439.50439,49.41418c10.50831,18.76667,8.62793,26.97315-8.79736,39.48151a14.49567,14.49567,0,0,0-1.42651,2.29047c1.69311,3.3186,3.43432,6.83441,5.2666,10.3023,4.66162,8.82324,9.74805,17.44666,13.94092,26.48584,4.11694,8.87512,11.04272,17.18823,7.54883,28.17035,4.46118,5.8927.79418,11.20044-2.17237,17.41089,3.37915,1.6391,6.27515,3.04376,9.05274,4.39117,3.252,6.2771,6.44018,13.18494,10.27905,19.71,16.49219,28.03222,23.00683,57.24951,11.36377,88.85522a14.59014,14.59014,0,0,0-.35059,3.75171c7.65259-6.6283,12.70581-15.08716,14.20655-24.37012,2.70166-16.71289,9.59326-32.28406,11.22729-49.35888,1.90674-19.92432,3.72192-39.70313,1.81079-59.68165-.1543-1.61358-.17139-3.24035-.26831-5.18017,1.32007-.512,2.50855-.9823,3.70386-1.43494,10.13525-3.83771,10.75-5.3117,5.49658-15.18915-4.05811-7.63073-8.50244-15.0559-12.56567-22.68408-1.80249-3.38385-3.08789-7.04315-4.44214-10.19183,11.86108-11.26032,14.55176-15.10565,14.89575-30.162.50049-21.88745-.27466-43.80566-.64722-65.70837-.03027-1.80292-1.14087-3.5874-1.66406-5.12879-21.875-2.11993-108.08008-1.1997-115.22656,1.4137C1417.53955,15.26861,1429.50684,31.5603,1439.50439,49.41418Z"/><path d="M1832.28223,1452.98382c-4.20435.7-8.41309,1.37183-12.499,2.03687-5.66455,17.68652-19.78833,23.04492-36.51489,26.552a28.42459,28.42459,0,0,0,2.90894,1.7146,32.35389,32.35389,0,0,0,3.79736,1.24268c38.345,9.36523,76.04639,3.95849,113.56274-5.08106a23.37939,23.37939,0,0,0,7.23633-3.28882,10.16635,10.16635,0,0,0,3.60449-4.40869c2.35621-5.823,4.47925-11.7478,6.48194-17.70434,1.05151-3.12744,2.52563-6.45362,2.33349-9.59961-.8811-14.41651,1.88941-28.04,7.92994-41.80908-8.63428-.51392-17.04981-1.0149-26.36109-1.5691,4.96509-7.63208,9.60816-14.0896,13.52173-20.96313,4.48853-7.88281,10.37085-15.64234,5.3877-25.73389-.76294-1.54541-.085-3.9375.27294-5.874.84571-4.57324-1.113-6.97339-5.50952-7.69361-1.75366-.2871-3.51635-.52-5.82373-.85815,5.17456-5.96484,5.17456-5.96484,14.87964-.70117,1.57886-2.67676,3.178-5.38818,4.68067-7.93579-5.52881-6.114-7.198-11.91382-4.48121-18.114,7.08545-16.17016,8.38453-33.42407,10.02051-50.62646.32349-3.3999.04663-6.85669.04663-10.66113-7.28833,2.135-8.29931,7.09155-9.45093,11.9646-4.28955,18.15551-14.86254,31.72753-30.3977,41.68969-2.74365,1.75952-5.4248,3.6167-8.38355,5.59546a41.55437,41.55437,0,0,0,1.87354,3.95459c13.18091,21.16577,14.20483,42.4231.98242,64.07251-1.34424,2.20117-1.33227,5.616-1.02734,8.36548.86841,7.83618-1.15161,14.90869-6.66626,20.13965-4.98413,4.72729-13.75537,4.615-16.75562,12.40552-.1875.48632-1.85766.60717-2.8208.55737-8.70776-.449-11.33276,4.811-12.36719,12.32544C1851.12329,1444.75336,1843.75317,1451.07489,1832.28223,1452.98382Z"/><path d="M1762.40845,384.05316c-5.34107-.0144-9.70874,1.94922-11.94751,7.31958a60.84959,60.84959,0,0,1-3.18628,5.728c-3.58765-.46387-7.15332-1.095-10.74585-1.35791-11.26929-.82447-22.5398-1.846-33.82691-2.14478-9.16967-.24267-17.68969,2.72534-25.542,7.479-8.37085,5.06762-12.01929,13.00976-14.86816,23.0227a46.17856,46.17856,0,0,0,5.133-1.35815c24.18042-10.33789,35.18018-8.26734,53.68018,9.74121a9.83019,9.83019,0,0,0,6.84473,2.63086c13.26-1.26856,24.74121,3.80786,36.27026,9.17846,17.74316,8.26563,27.56226,21.42554,26.47827,41.61316a20.40527,20.40527,0,0,0,.26172,2.963,58.21954,58.21954,0,0,0,8.46411-23.22376,38.69125,38.69125,0,0,0-4.65576-25.08777c-4.20044-7.28271-9.26514-14.06653-14.61816-22.06909,21.6582-.83325,40.34008,5.63123,59.31176,14.08057-6.27392-6.80762-11.61938-12.6073-16.9646-18.40723-6.53051-7.08557-12.60766-14.67847-19.76123-21.06567-4.25708-3.801-9.946-7.109-15.45654-8.13208C1779.208,383.46454,1770.71973,384.07538,1762.40845,384.05316Z"/><path d="M2059.26733,1410.26434c-2.65478,1.52588-5.42749,2.88135-7.937,4.6167-3.88489,2.687-7.75256,4.4668-12.77575,4.688-9.38929.41284-12.27784,7.55-7.37427,16.01294a46.38856,46.38856,0,0,1,5.0365,11.8081c4.70092,18.90332.12585,35.48169-13.198,49.70044-3.59082,3.83228-6.96582,7.8667-10.29419,11.64283,9.57812,5.09668,46.28613,4.12524,59.27917-2.56324-2.684-4.65234-5.33313-9.24365-8.33972-14.45532,9.02991-.84009,17.56714-1.35425,26.02222-2.48486,13.25464-1.7732,22.85913-8.47534,27.02026-21.68994,1.29492-4.113,2.34107-8.30982,3.368-12.50074,2.141-8.7351-.954-13.15283-9.9552-13.61108-7.63256-.38867-15.30273-.03394-22.93713-.404-6.74377-.32691-13.10828.32226-17.973,4.686-5.90772-2.46948-5.59522-6.314-4.75318-11.02734,1.62842-9.11426-.89843-12.85132-8.89086-14.73a47.73318,47.73318,0,0,0-4.88453-.46192c4.19117-3.19628,6.93079-5.28564,9.67066-7.375Z"/><path d="M2337.71777,353.11566a88.30707,88.30707,0,0,0-9.20105-17.67786c-17.18982-24.50891-34.69079-48.80066-52.21594-73.07214-4.23584-5.86633-9.983-10.18726-17.42578-10.32214-7.11145-.129-12.69983-2.9513-18.28247-6.86341-7.90064-5.53662-16.176-10.53552-24.21533-15.87854-6.32666-4.20495-13.43006-5.75036-20.80713-6.13171-2.0343-.10523-4.1333,1.03711-6.20239,1.60693l.06079,2.42578c3.12353,1.72608,6.21362,3.51709,9.37671,5.168,33.86572,17.67578,63.10864,40.85266,85.09082,72.41272,9.314,13.372,18.03393,27.1659,26.78564,40.9198,16.7229,26.282,26.22656,55.94165,38.97583,84.08313,1.42749,3.15113,2.31616,6.54627,3.45471,9.82837q1.101-.13422,2.20154-.26831c0-4.41858.83814-9.03577-.15332-13.21924q-4.93542-20.8222-11.05225-41.3573c-1.68872-5.68921-4.105-10.823-3.376-17.25C2341.26,362.86615,2339.54321,357.6391,2337.71777,353.11566Z"/><path d="M2086.1554,352.14178c.51367,7.29151.95849,14.61792,2.07287,21.83033,1.72193,11.14831,3.79822,22.25329,6.15991,33.2832a15.072,15.072,0,0,0,4.42212,7.36426c8.29,7.63818,16.88636,14.94409,25.38208,22.35815,1.54944,1.35205,3.15674,2.63721,6.38636,5.32666-2.11512-6.52832-3.51917-10.89954-4.94751-15.26294-5.14283-15.71094-7.64441-31.58081-4.19056-48.121.5857-2.80457-.78625-6.4801-2.28491-9.18127-8.23279-14.83887-16.76806-29.5105-25.24805-44.21155-1.41723-2.457-3.073-4.77649-4.6184-7.15955q-.69654.28346-1.39283.5669c1.31006,4.67907,2.62037,9.35815,4.11585,14.69787C2085.46,338.062,2085.65991,345.11273,2086.1554,352.14178Z"/><path d="M2412.75293,584.50165a73.41249,73.41249,0,0,0-47.01367-14.63379c23.2041,15.81286,43.02856,33.46093,42.45068,63.46374,4.82764,3.1676,9.17188,5.23108,12.48572,8.37976a135.05624,135.05624,0,0,1,13.06287,14.90747c2.2456,2.87256,5.2351,4.0741,7.61157,2.17432,1.87353-1.49817,2.49731-5.00293,2.87646-7.72778.17188-1.23487-1.42578-2.89087-2.50781-4.09839-11.14807-12.44092-15.849-28.31348-22.77783-42.97888a14.13242,14.13242,0,0,1-1.07373-8.70838C2419.18042,589.91461,2416.36267,587.15533,2412.75293,584.50165Z"/><path d="M2224.364,365.96356c-1.82922-1.7561-4.853-2.26733-7.32483-3.354,14.63208,25.76,30.54627,49.79931,40.72474,77.01416q1.09863.18072,2.19726.3612c1.22254-4.07361,1.898-8.42077,3.77-12.17,5.68457-11.38416,2.19837-20.63086-6.01733-28.89942C2246.69861,387.82928,2235.637,376.78509,2224.364,365.96356Z"/><path d="M2096.66931,1135.46112c2.30774,12.31836,2.39978,24.41821-1.73279,36.38525-.78491,2.2732-1.38037,4.61206-2.06323,6.92066a70.89574,70.89574,0,0,0,12.75647-16.72266c5.91614-10.52209,10.66138-21.51465,9.72241-34.02124-.16577-2.2074-.2489-5.21643-1.62365-6.40381-6.93287-5.98779-6.44642-12.97778-3.88685-20.47949-5.00817,3.93811-10.0382,7.89038-16.089,12.645C2094.62524,1120.44586,2095.27588,1128.02313,2096.66931,1135.46112Z"/><path d="M2110.15479,1100.89349l-.17627-.16369c-.0481.13732-.09009.27307-.13685.41Q2109.99822,1101.01679,2110.15479,1100.89349Z"/><path d="M2014.67725,1366.28534c-2.56018,2.43359-2.96985,4.79-2.92835,7.89477.16882,12.63941-5.611,22.53443-15.37146,29.865-5.2688,3.95752-7.71557,8.512-7.95508,15.3274h15.60779c5.16565-11.689,10.22376-23.13453,15.5426-35.17017,6.89893,2.15137,13.03663,4.06567,20.36768,6.35181-1.78613-4.6792-3.0415-7.968-4.28992-11.238-4.55822-1.00147-8.70251-1.91187-13.41443-2.947,3.72571-9.62525,7.27906-18.80445,10.83069-27.97974-1.26172.57324-2.74157.94141-3.62048,1.875C2024.46606,1355.55511,2019.92944,1361.29315,2014.67725,1366.28534Z"/><path d="M2033.06677,1348.38934c.08826-.04.17847-.07837.26428-.12085l-.15881-.15161C2033.13721,1348.2077,2033.10181,1348.29852,2033.06677,1348.38934Z"/><path d="M1473.85254,1122.73529c4.33447-9.25293,5.20312-18.68823,4.15674-28.335a15.65838,15.65838,0,0,0-2.5874-7.27979c-4.05494-5.56347-8.57227-10.78979-12.8003-16.0177-1.82568,4.67346-2.898,9.45886-5.38037,13.34241-4.917,7.69116-4.15185,20.86377,2.60889,26.94141C1464.20923,1115.3056,1468.95557,1118.79352,1473.85254,1122.73529Z"/><path d="M2026.62268,1284.74872c-4.19739-4.25611-8.09607-4.98072-13.7157-1.38965.81494,2.82373,1.01929,5.98681,2.53589,8.2832a129.23087,129.23087,0,0,0,11.07752,14.35425c7.71789,8.72241,12.24743,17.78467,7.266,29.8103-1.39234,3.36157-.51258,7.66455-.45471,11.62671,5.63806-17.281,11.32653-34.52905,17.54968-53.39673C2039.3938,1296.61444,2032.72363,1290.93475,2026.62268,1284.74872Z"/><path d="M2033.33167,1347.43353q-.10254.31458-.20533.62866c.04578.05469.20471.2063.20471.2063C2033.33618,1347.99237,2033.33569,1347.71356,2033.33167,1347.43353Z"/><path d="M2750.24841,550.239q-.761.17322-1.5216.3468c-4.46631,13.21131-8.36292,26.65369-13.59632,39.55359-3.56579,8.7898-1.71008,16.146,2.59095,25.53076.55542-9.86255,4.70752-16.11364,10.14453-21.75866a52.24174,52.24174,0,0,0,7.05285-8.38855c1.27576-2.061,2.274-5.03321,1.83094-7.29029C2754.90564,568.83783,2752.46826,559.55975,2750.24841,550.239Z"/><path d="M1582.65942,1153.06183c-15.78-16.9242-31.23169-33.4961-46.62133-50.00171C1532.81079,1126.97162,1555.59082,1151.84369,1582.65942,1153.06183Z"/><path d="M2182.34082,1094.93951c2.86719-8.21277,5.30713-15.20276,7.863-22.52331-8.396-3.59436-16.44837-7.04175-24.78345-10.61011C2160.37256,1078.38055,2173.4115,1084.66229,2182.34082,1094.93951Z"/><path d="M2527.28674,792.95379q-4.684-21.76776-9.37231-43.55322-.60535-.19574-1.21082-.39148c-1.387,10.67469-2.92431,21.33362-4.03332,32.037-.22095,2.13232.91467,4.57153,1.91418,6.63159C2517.19934,793.06549,2520.30981,794.23529,2527.28674,792.95379Z"/><path d="M1978.20325,1138.185c4.82531,8.02368,9.24719,15.37646,14.217,23.6405,5.96252-8.21814,3.40979-16.43518,5.46838-24.191C1991.32007,1136.23846,1985.38135,1135.29877,1978.20325,1138.185Z"/><path d="M2311.46265,1090.81073c.07373,3.80639,1.93237,5.355,5.46753,5.58374,11.90832-9.23938,4.26879-21.97608,8.39575-32.25232C2317.49878,1069.93182,2311.30957,1082.92206,2311.46265,1090.81073Z"/><path d="M2220.98779,1150.44842a57.24767,57.24767,0,0,0-5.13525-2.92163,9.89794,9.89794,0,0,0-2.84583-.344c-4.23425,16.53735-5.77929,39.28528-2.93322,47.354,1.37939-.8811,3.26123-1.39038,3.74194-2.50415,2.80151-6.493,4.97412-13.04785.71167-19.94275-4.11841-6.6615-2.65918-12.65808,2.87732-17.89685C2218.34424,1153.30389,2219.199,1152.3244,2220.98779,1150.44842Z"/><path d="M2310.55151,982.27753c-.8363,1.68505-1.7788,3.32641-2.4917,5.06225-4.79443,11.67529-9.22558,23.50781-21.69116,29.699-3.3872,1.68261-3.41528,4.91211-1.60974,8.42627,8.56946-7.772,16.733-14.95655,24.5835-22.46839a11.81314,11.81314,0,0,0,3.2511-6.72351c.508-4.52319.1477-9.14416.1477-13.72449Q2311.64624,982.41315,2310.55151,982.27753Z"/><path d="M2333.73694,1393.5766q-1.36066-.28089-2.72083-.562c-3.90747,9.48461-7.81494,18.969-12.11,29.39477h13.53039C2331.29468,1412.3183,2335.88794,1403.03558,2333.73694,1393.5766Z"/><path d="M1828.2085,356.05865c3.99243-7.58435-1.29346-11.98181-4.73829-16.89148-3.313-4.72192-7.52026-6.13183-14.55322-2.61206C1816.54,342.69122,1816.332,354.70184,1828.2085,356.05865Z"/><path d="M1423.03076,1015.33343c6.17139,14.54651,21.28491,35.71973,31.11133,42.50928-6.895-11.44531-13.5542-23.04443-20.8418-34.23413C1431.33228,1020.58624,1427.459,1018.80487,1423.03076,1015.33343Z"/><path d="M2106.79761,1392.58465c-2.87134.96265-6.4607.033-9.68189-.36035-3.91845-.478-7.79419-1.30737-11.68969-1.97656-4.50977-.77441-6.60914,1.60352-7.82972,6.56348,2.87293,0,5.483.54516,7.76233-.09229,11.13147-3.11377,22.218-2.56933,33.35742-.28638,4.323.886,8.34156.31031,13.84009-3.1726C2122.68335,1392.9953,2115.03613,1389.82147,2106.79761,1392.58465Z"/><path d="M977.77246,1206.16571c-5.365-12.991-13.07715-24.5437-22.0415-35.24414C958.33179,1185.7453,966.6792,1196.82342,977.77246,1206.16571Z"/><path d="M2743.959,647.74237q.90638.05384,1.81311.1073c2.27845-5.27014,4.55665-10.54028,6.64783-15.37744-5.0664-4.45325-9.249-8.12976-14.40869-12.665C2740.19006,630.04083,2742.07446,638.89166,2743.959,647.74237Z"/><path d="M2564.07007,741.35858c-7.76941-3.53-15.71045-6.68164-23.57959-9.99146q-.36915.74195-.73779,1.48377c8.58081,5.85779,17.16125,11.7157,25.92346,17.69739C2568.28271,743.6142,2568.41138,743.33124,2564.07007,741.35858Z"/><path d="M2335.581,1137.82623c-9.66381-5.2821-17.27294-9.441-24.741-13.52295C2312.39355,1136.82977,2317.72925,1140.2569,2335.581,1137.82623Z"/><path d="M1788.3667,302.26739c-3.387,1.73474-6.35547,3.25513-9.82935,5.03418,3.177,4.43665,5.60425,7.82654,8.29615,11.58582,2.75537-3.16528,4.895-5.623,7.86181-9.03089C1792.4834,307.204,1790.65015,305.00555,1788.3667,302.26739Z"/><path d="M2264.22656,1064.73382c-8.4198-.32959-16.79809-.8562-24.48462,3.50245C2248.36133,1070.89007,2256.78455,1071.903,2264.22656,1064.73382Z"/><path d="M2329.85229,701.74383c11.04224,4.704,15.52466-2.92773,20.89576-8.6759C2342.82507,692.9389,2334.49121,691.77118,2329.85229,701.74383Z"/><path d="M1922.927,1171.09772c-1.52514-4.36341-4.82495-3.98755-9.49951-2.86768,4.75562,7.74634,8.91138,14.51526,13.06714,21.2843q.917-.42333,1.834-.84692C1926.54785,1182.80389,1924.947,1176.87762,1922.927,1171.09772Z"/><path d="M1991.76025,1282.55243c-2.29394,3.74438.4419,7.22387,3.24793,11.03833,3.1842-3.76807,5.98645-7.08423,9.63733-11.40454C1999.14246,1281.39325,1994.91309,1277.40619,1991.76025,1282.55243Z"/><path d="M1875.59424,454.87262c-3.635-4.7002-8.97022-5.91944-16.28369-8.43982,5.54614,6.51733,9.53174,11.20093,13.511,15.8772C1877.76147,458.31488,1877.938,457.903,1875.59424,454.87262Z"/><path d="M1244.98633,905.43085c5.03418,8.86706,9.15869,16.13208,13.2832,23.397C1258.03564,918.63446,1253.08081,910.00311,1244.98633,905.43085Z"/><path d="M2200.89551,1029.47967c3.78174-4.70654,7.22522-8.99243,11.93616-14.85547C2200.06885,1018.36639,2198.10144,1021.0014,2200.89551,1029.47967Z"/><path d="M2458.89551,801.22394v12.5343c3.16919-1.56909,5.79089-2.86743,9.41894-4.66406-3.14477-3.58912-5.36523-6.12281-7.58545-8.6565Q2459.8122,800.83062,2458.89551,801.22394Z"/><path d="M1865.92407,343.56952c-5.44409-2.19641-10.22339-4.12476-16.09106-6.49207C1851.30518,345.43548,1855.70508,347.0816,1865.92407,343.56952Z"/><path d="M2467.91943,775.70441c-3.0216,4.80151-5.75537,7.93,0,12.60241Z"/><path d="M1817.9856,276.78717c-2.29639-1.48206-4.18213-5.39588-8.41675-.16687,3.03808.79321,5.3584,1.3988,7.67846,2.00452Z"/><path d="M1120.126,525.28045q-.95838-.31695-1.917-.634-1.53808,3.82032-3.07568,7.64087,1.32056.44715,2.64111.89417Q1118.95,529.231,1120.126,525.28045Z"/><path d="M2351.561,1104.54962c-2.01709,1.26477-3.31531,2.07874-5.85083,3.66858C2351.55347,1110.84967,2351.80566,1108.66693,2351.561,1104.54962Z"/><path d="M1932.15527,1207.80926q-1.20117.37573-2.40185.75147,1.0144,3.01062,2.02881,6.02148,1.05945-.34863,2.11865-.69751Q1933.02784,1210.847,1932.15527,1207.80926Z"/><path d="M2188.29456,752.63629c2.44592-.747,4.76452-1.455,7.08142-2.1626C2190.64551,749.17657,2190.62134,749.20172,2188.29456,752.63629Z"/><path d="M2195.48291,750.50287l.001-.00293.00341.02319.0105-.08667c3.72559-3.48181,7.4513-6.96374,11.54053-10.78577-12.62695,2.11524-12.79309,2.24842-11.5625,10.79248l-.09985.03052Z"/></svg>