<svg xmlns="http://www.w3.org/2000/svg" viewBox="0 0 24 24"><path d="M21.48255,6.482H18.04116a3.80447,3.80447,0,0,0-.064-5.35687,3.89554,3.89554,0,0,0-5.47676,0,2.761,2.761,0,0,0-.50052.71818,2.84376,2.84376,0,0,0-.5014-.71841,3.89553,3.89553,0,0,0-5.47673,0A3.80593,3.80593,0,0,0,5.95642,6.482H2.51718A1.51,1.51,0,0,0,1,7.9871v2.0213a1.51,1.51,0,0,0,1.51718,1.50512H21.48285A1.51121,1.51121,0,0,0,23,10.0084V7.9871A1.51189,1.51189,0,0,0,21.48285,6.482Zm-7.911-4.29263a2.37034,2.37034,0,0,1,3.33187,0,2.32343,2.32343,0,0,1,0,3.30569c-.48462.48085-2.09558.79566-4.132.81509-.00089-.18174-.00484-.3831-.01187-.60107.05915-1.4338.30347-3.01527.81192-3.51971Zm-6.47709,0a2.37036,2.37036,0,0,1,3.33189,0c.50932.50528.75276,2.08569.81079,3.52055-.0068.219-.01077.42019-.01077.60107C9.19,6.29133,7.57822,5.97673,7.09332,5.49589a2.32311,2.32311,0,0,1,.00107-3.30654Z"/><path d="M2.61278,21.74208A2.26679,2.26679,0,0,0,4.88869,24H9.725V13.01967H2.6129Z"/><path d="M14.27578,23.999h4.83637A2.26774,2.26774,0,0,0,21.388,21.74118V13.01894l-7.11213.00022Z"/></svg>
