<svg xmlns="http://www.w3.org/2000/svg" viewBox="0 0 30 35.72954" fill="#000"><path d="M28.63245,4.27373,16.58112.25658a4.9999,4.9999,0,0,0-3.16224,0L1.36755,4.27373A1.99994,1.99994,0,0,0,0,6.17107v9.55847C0,23.83354,5.86005,31.361,13.86267,35.461A2.49645,2.49645,0,0,0,15,35.72954h.00006a2.49645,2.49645,0,0,0,1.13733-.26856C24.14,31.361,30,23.83354,30,15.72954V6.17107A1.99994,1.99994,0,0,0,28.63245,4.27373ZM17.38214,15.058A1.009,1.009,0,0,0,17,15.874v9.99084a2.00135,2.00135,0,0,1-2.33588,1.9726A2.07444,2.07444,0,0,1,13,25.75774V15.78893a.9385.9385,0,0,0-.39917-.74366,4,4,0,1,1,4.78131.0127Z"/></svg>
