<svg width="23" height="19" viewBox="0 0 23 19" fill="none" xmlns="http://www.w3.org/2000/svg">
<path fill-rule="evenodd" clip-rule="evenodd" d="M14.8124 13.4849C15.4089 14.0434 15.8933 14.4688 16.4345 15.0012C19.5393 11.1323 19.3008 7.62959 15.938 4.17144C15.4795 4.6763 14.9796 5.16802 14.521 5.67272C17.1875 8.41954 16.964 11.0183 14.8124 13.4849ZM17.5687 2.52701C18.0593 2.02625 18.5501 1.52536 19.0408 1.0246C24.3206 6.40927 24.1518 12.6777 19.534 17.9752C19.058 17.5139 18.5824 17.0526 18.1065 16.5913C21.9139 12.328 21.869 6.67477 17.5687 2.52701ZM12.9026 0L4.92664 4.53615H0V14.4626H4.92664L12.9026 19V0Z" fill="white"/>
</svg>
