<svg width="18" height="11" viewBox="0 0 18 11" fill="none" xmlns="http://www.w3.org/2000/svg">
<path d="M0.436403 2.6762C0.44371 2.66567 0.453415 2.6554 0.461226 2.64473C1.26375 1.61517 2.61465 1.0902 3.79532 0.731908C5.22057 0.298315 6.70614 0.0865584 8.1868 0.021265C9.67479 -0.0443082 11.1751 0.0395677 12.6434 0.303574C13.9989 0.54875 15.4019 0.935609 16.5801 1.7013C17.0996 2.03879 17.6148 2.48516 17.8676 3.08652C17.9828 3.36079 18.0201 3.65865 17.9901 3.95148C17.9425 4.30977 17.9249 4.68555 17.8124 5.03083C17.4523 6.14162 16.2821 7.09298 15.3116 7.52947C14.0908 8.0804 12.7757 8.41233 11.4405 8.58246V11L6.50576 6.84172L11.4405 2.68882V5.63424C11.4478 5.63424 11.4552 5.63174 11.4604 5.63174C12.1531 5.50625 12.8386 5.32863 13.4885 5.05647C14.0539 4.82143 14.6388 4.51069 15.0371 4.01966C15.1445 3.88312 15.2841 3.72392 15.2266 3.54602C15.2046 3.47031 15.1721 3.3946 15.1339 3.32402C14.9911 3.04975 14.7768 2.82497 14.5388 2.63681C13.5784 1.86323 12.2657 1.55207 11.0947 1.37682C9.71948 1.17351 8.29678 1.17825 6.92353 1.40025C6.03559 1.54167 5.14509 1.76656 4.32783 2.16358C3.84007 2.40112 3.37221 2.70686 3.02709 3.14336C2.89731 3.32111 2.6773 3.62751 2.79726 3.84716C2.94456 4.11577 3.16986 4.33303 3.4075 4.5133C3.79246 4.80378 4.22477 5.02342 4.68027 5.1955C4.68027 5.1955 5.40644 5.49979 5.43402 6.98047C5.45721 8.22927 4.68027 8.28128 4.68027 8.28128C3.57217 8.01767 2.59401 7.56932 1.7101 6.86407C-4.3869e-05 5.49955 0.0512486 4.33276 0.0158615 4.09208C-0.053566 3.60068 0.111118 3.12836 0.388817 2.73899C0.406332 2.71818 0.420902 2.6974 0.436403 2.6762Z" fill="white"/>
</svg>
