<svg xmlns="http://www.w3.org/2000/svg" viewBox="0 0 301 406"><path d="M290.5,300.5a10,10,0,0,0,10-10V10.5a10,10,0,0,0-10-10H10.5a10,10,0,0,0-10,10v280a10,10,0,0,0,10,10H18a2.5,2.5,0,0,1,2.5,2.5h0a2.5,2.5,0,0,1-2.5,2.5H10.5a10,10,0,0,0-10,10v80a10,10,0,0,0,10,10h280a10,10,0,0,0,10-10v-80a10,10,0,0,0-10-10H283a2.5,2.5,0,0,1-2.5-2.5h0a2.5,2.5,0,0,1,2.5-2.5ZM40.5,303h0a2.5,2.5,0,0,1,2.5-2.5H58a2.5,2.5,0,0,1,2.5,2.5h0a2.5,2.5,0,0,1-2.5,2.5H43A2.5,2.5,0,0,1,40.5,303Zm40,0h0a2.5,2.5,0,0,1,2.5-2.5H98a2.5,2.5,0,0,1,2.5,2.5h0a2.5,2.5,0,0,1-2.5,2.5H83A2.5,2.5,0,0,1,80.5,303Zm40,0h0a2.5,2.5,0,0,1,2.5-2.5h15a2.5,2.5,0,0,1,2.5,2.5h0a2.5,2.5,0,0,1-2.5,2.5H123A2.5,2.5,0,0,1,120.5,303Zm40,0h0a2.5,2.5,0,0,1,2.5-2.5h15a2.5,2.5,0,0,1,2.5,2.5h0a2.5,2.5,0,0,1-2.5,2.5H163A2.5,2.5,0,0,1,160.5,303Zm40,0h0a2.5,2.5,0,0,1,2.5-2.5h15a2.5,2.5,0,0,1,2.5,2.5h0a2.5,2.5,0,0,1-2.5,2.5H203A2.5,2.5,0,0,1,200.5,303Zm57.5,2.5H243a2.5,2.5,0,0,1-2.5-2.5h0a2.5,2.5,0,0,1,2.5-2.5h15a2.5,2.5,0,0,1,2.5,2.5h0A2.5,2.5,0,0,1,258,305.5Z" stroke-miterlimit="10"/></svg>
