<svg xmlns="http://www.w3.org/2000/svg" viewBox="0 0 24 24"><path d="M24,4.55669a9.84276,9.84276,0,0,1-2.82793.77532A4.93822,4.93822,0,0,0,23.337,2.60789a9.85673,9.85673,0,0,1-3.12685,1.19484,4.92839,4.92839,0,0,0-8.39041,4.491A13.9788,13.9788,0,0,1,1.67084,3.14908,4.929,4.929,0,0,0,3.1946,9.72282,4.90443,4.90443,0,0,1,.9644,9.107c-.00056.02052-.00056.04116-.00056.06192a4.92729,4.92729,0,0,0,3.94981,4.8282A4.9354,4.9354,0,0,1,2.69,14.08146a4.92863,4.92863,0,0,0,4.59973,3.41929,9.87884,9.87884,0,0,1-6.11521,2.10792A10.01391,10.01391,0,0,1,0,19.53979a13.93623,13.93623,0,0,0,7.54789,2.21232A13.914,13.914,0,0,0,21.55744,7.74245q0-.32022-.01428-.63708a10.00325,10.00325,0,0,0,2.45676-2.54869Z" fill="#2aa9e0"/></svg>
