<svg xmlns="http://www.w3.org/2000/svg" viewBox="0 0 295 295" fill="#fff"><path d="M284,138.99H211a11.01943,11.01943,0,0,0-11,11v43a11.013,11.013,0,0,0,11,11h73a11.0066,11.0066,0,0,0,11-11v-43A11.013,11.013,0,0,0,284,138.99ZM230,191.5a20,20,0,1,1,20-20A20.00728,20.00728,0,0,1,230,191.5Z" fill="#231f20"/><path d="M211,128.99h59V87.5a16,16,0,0,0-16-16H40a8,8,0,0,1-8-8v0a8,8,0,0,1,8-8H222a16,16,0,0,0,16-16v0a16,16,0,0,0-16-16H32a32,32,0,0,0-32,32v200a16,16,0,0,0,16,16H254a16.002,16.002,0,0,0,16-16V213.99H211a21,21,0,0,1-21-21v-43A21.02947,21.02947,0,0,1,211,128.99Z"/></svg>
