<svg xmlns="http://www.w3.org/2000/svg" viewBox="0 0 57 57"><rect width="57" height="57" rx="9" fill="#3396ff"/><path d="M17.4,21.2a15.9,15.9,0,0,1,22.2,0l.7.7a.8.8,0,0,1,0,1.1l-2.5,2.4a.4.4,0,0,1-.6,0l-1-.9a11,11,0,0,0-15.4,0l-1.1,1c-.2.2-.4.2-.5,0l-2.6-2.4a.8.8,0,0,1,0-1.1l.8-.8Zm27.3,5.1L47,28.5a.8.8,0,0,1,0,1.1L36.9,39.4a.8.8,0,0,1-1.1,0l-7.2-7a.2.2,0,0,0-.3,0l-7.1,7a.8.8,0,0,1-1.1,0L10,29.6a.8.8,0,0,1,0-1.1l2.2-2.2a.8.8,0,0,1,1.1,0l7.2,7h.3l7.1-7a.8.8,0,0,1,1.1,0l7.2,7h.3l7.2-7a.7.7,0,0,1,1,0Z" fill="#fff"/></svg>